%TF.GenerationSoftware,KiCad,Pcbnew,6.0.7+dfsg-1~bpo11+1*%
%TF.CreationDate,2022-10-18T02:59:47+00:00*%
%TF.ProjectId,0204-OUTLETS,30323034-2d4f-4555-944c-4554532e6b69,V1.0*%
%TF.SameCoordinates,Original*%
%TF.FileFunction,Profile,NP*%
%FSLAX46Y46*%
G04 Gerber Fmt 4.6, Leading zero omitted, Abs format (unit mm)*
G04 Created by KiCad (PCBNEW 6.0.7+dfsg-1~bpo11+1) date 2022-10-18 02:59:47*
%MOMM*%
%LPD*%
G01*
G04 APERTURE LIST*
%TA.AperFunction,Profile*%
%ADD10C,0.050000*%
%TD*%
G04 APERTURE END LIST*
D10*
X47790001Y7660000D02*
G75*
G03*
X49989999Y7660000I1099999J0D01*
G01*
X49989999Y7660000D02*
X49990000Y12660000D01*
X27790001Y7660000D02*
G75*
G03*
X29989999Y7660000I1099999J0D01*
G01*
X59990000Y12660000D02*
G75*
G03*
X57790000Y12660000I-1100000J0D01*
G01*
X76990000Y22860000D02*
X76990000Y0D01*
X47790000Y12660000D02*
X47790001Y7660000D01*
X57790000Y12660000D02*
X57790001Y7660000D01*
X67790001Y7660000D02*
G75*
G03*
X69989999Y7660000I1099999J0D01*
G01*
X29989999Y7660000D02*
X29990000Y12660000D01*
X59989999Y7660000D02*
X59990000Y12660000D01*
X9990000Y12660000D02*
G75*
G03*
X7790000Y12660000I-1100000J0D01*
G01*
X29990000Y12660000D02*
G75*
G03*
X27790000Y12660000I-1100000J0D01*
G01*
X790000Y22860000D02*
X76990000Y22860000D01*
X27790000Y12660000D02*
X27790001Y7660000D01*
X19989999Y7660000D02*
X19990000Y12660000D01*
X37790000Y12660000D02*
X37790001Y7660000D01*
X49990000Y12660000D02*
G75*
G03*
X47790000Y12660000I-1100000J0D01*
G01*
X19990000Y12660000D02*
G75*
G03*
X17790000Y12660000I-1100000J0D01*
G01*
X7790001Y7660000D02*
G75*
G03*
X9989999Y7660000I1099999J0D01*
G01*
X39990000Y12660000D02*
G75*
G03*
X37790000Y12660000I-1100000J0D01*
G01*
X76990000Y0D02*
X790000Y0D01*
X7790000Y12660000D02*
X7790001Y7660000D01*
X37790001Y7660000D02*
G75*
G03*
X39989999Y7660000I1099999J0D01*
G01*
X9989999Y7660000D02*
X9990000Y12660000D01*
X67790000Y12660000D02*
X67790001Y7660000D01*
X790000Y22860000D02*
X790000Y0D01*
X39989999Y7660000D02*
X39990000Y12660000D01*
X17790001Y7660000D02*
G75*
G03*
X19989999Y7660000I1099999J0D01*
G01*
X17790000Y12660000D02*
X17790001Y7660000D01*
X69989999Y7660000D02*
X69990000Y12660000D01*
X69990000Y12660000D02*
G75*
G03*
X67790000Y12660000I-1100000J0D01*
G01*
X57790001Y7660000D02*
G75*
G03*
X59989999Y7660000I1099999J0D01*
G01*
M02*
