%TF.GenerationSoftware,KiCad,Pcbnew,6.0.7+dfsg-1~bpo11+1*%
%TF.CreationDate,2022-10-18T02:59:46+00:00*%
%TF.ProjectId,0204-OUTLETS,30323034-2d4f-4555-944c-4554532e6b69,V1.0*%
%TF.SameCoordinates,Original*%
%TF.FileFunction,Soldermask,Bot*%
%TF.FilePolarity,Negative*%
%FSLAX46Y46*%
G04 Gerber Fmt 4.6, Leading zero omitted, Abs format (unit mm)*
G04 Created by KiCad (PCBNEW 6.0.7+dfsg-1~bpo11+1) date 2022-10-18 02:59:46*
%MOMM*%
%LPD*%
G01*
G04 APERTURE LIST*
G04 Aperture macros list*
%AMRoundRect*
0 Rectangle with rounded corners*
0 $1 Rounding radius*
0 $2 $3 $4 $5 $6 $7 $8 $9 X,Y pos of 4 corners*
0 Add a 4 corners polygon primitive as box body*
4,1,4,$2,$3,$4,$5,$6,$7,$8,$9,$2,$3,0*
0 Add four circle primitives for the rounded corners*
1,1,$1+$1,$2,$3*
1,1,$1+$1,$4,$5*
1,1,$1+$1,$6,$7*
1,1,$1+$1,$8,$9*
0 Add four rect primitives between the rounded corners*
20,1,$1+$1,$2,$3,$4,$5,0*
20,1,$1+$1,$4,$5,$6,$7,0*
20,1,$1+$1,$6,$7,$8,$9,0*
20,1,$1+$1,$8,$9,$2,$3,0*%
G04 Aperture macros list end*
%ADD10RoundRect,0.050000X0.850000X-0.850000X0.850000X0.850000X-0.850000X0.850000X-0.850000X-0.850000X0*%
%ADD11O,1.800000X1.800000*%
%ADD12RoundRect,0.050000X-0.850000X-0.850000X0.850000X-0.850000X0.850000X0.850000X-0.850000X0.850000X0*%
G04 APERTURE END LIST*
D10*
%TO.C,J1*%
X2060000Y1270000D03*
D11*
X4600000Y1270000D03*
X7140000Y1270000D03*
X9680000Y1270000D03*
X12220000Y1270000D03*
X14760000Y1270000D03*
X17300000Y1270000D03*
X19840000Y1270000D03*
X22380000Y1270000D03*
X24920000Y1270000D03*
X27460000Y1270000D03*
X30000000Y1270000D03*
X32540000Y1270000D03*
X35080000Y1270000D03*
X37620000Y1270000D03*
X40160000Y1270000D03*
X42700000Y1270000D03*
X45240000Y1270000D03*
X47780000Y1270000D03*
X50320000Y1270000D03*
X52860000Y1270000D03*
X55400000Y1270000D03*
X57940000Y1270000D03*
X60480000Y1270000D03*
X63020000Y1270000D03*
X65560000Y1270000D03*
X68100000Y1270000D03*
X70640000Y1270000D03*
X73180000Y1270000D03*
X75720000Y1270000D03*
%TD*%
D12*
%TO.C,J3*%
X75720000Y11435000D03*
D11*
X75720000Y8895000D03*
%TD*%
D10*
%TO.C,J2*%
X2060000Y19050000D03*
D11*
X2060000Y21590000D03*
X4600000Y19050000D03*
X4600000Y21590000D03*
X7140000Y19050000D03*
X7140000Y21590000D03*
X9680000Y19050000D03*
X9680000Y21590000D03*
X12220000Y19050000D03*
X12220000Y21590000D03*
X14760000Y19050000D03*
X14760000Y21590000D03*
X17300000Y19050000D03*
X17300000Y21590000D03*
X19840000Y19050000D03*
X19840000Y21590000D03*
X22380000Y19050000D03*
X22380000Y21590000D03*
X24920000Y19050000D03*
X24920000Y21590000D03*
X27460000Y19050000D03*
X27460000Y21590000D03*
X30000000Y19050000D03*
X30000000Y21590000D03*
X32540000Y19050000D03*
X32540000Y21590000D03*
X35080000Y19050000D03*
X35080000Y21590000D03*
X37620000Y19050000D03*
X37620000Y21590000D03*
X40160000Y19050000D03*
X40160000Y21590000D03*
X42700000Y19050000D03*
X42700000Y21590000D03*
X45240000Y19050000D03*
X45240000Y21590000D03*
X47780000Y19050000D03*
X47780000Y21590000D03*
X50320000Y19050000D03*
X50320000Y21590000D03*
X52860000Y19050000D03*
X52860000Y21590000D03*
X55400000Y19050000D03*
X55400000Y21590000D03*
X57940000Y19050000D03*
X57940000Y21590000D03*
X60480000Y19050000D03*
X60480000Y21590000D03*
X63020000Y19050000D03*
X63020000Y21590000D03*
X65560000Y19050000D03*
X65560000Y21590000D03*
X68100000Y19050000D03*
X68100000Y21590000D03*
X70640000Y19050000D03*
X70640000Y21590000D03*
X73180000Y19050000D03*
X73180000Y21590000D03*
X75720000Y19050000D03*
X75720000Y21590000D03*
%TD*%
M02*
