%TF.GenerationSoftware,KiCad,Pcbnew,6.0.7+dfsg-1~bpo11+1*%
%TF.CreationDate,2022-10-18T02:59:46+00:00*%
%TF.ProjectId,0204-OUTLETS,30323034-2d4f-4555-944c-4554532e6b69,V1.0*%
%TF.SameCoordinates,Original*%
%TF.FileFunction,Copper,L2,Bot*%
%TF.FilePolarity,Positive*%
%FSLAX46Y46*%
G04 Gerber Fmt 4.6, Leading zero omitted, Abs format (unit mm)*
G04 Created by KiCad (PCBNEW 6.0.7+dfsg-1~bpo11+1) date 2022-10-18 02:59:46*
%MOMM*%
%LPD*%
G01*
G04 APERTURE LIST*
%TA.AperFunction,ComponentPad*%
%ADD10R,1.700000X1.700000*%
%TD*%
%TA.AperFunction,ComponentPad*%
%ADD11O,1.700000X1.700000*%
%TD*%
%TA.AperFunction,ViaPad*%
%ADD12C,0.500000*%
%TD*%
%TA.AperFunction,Conductor*%
%ADD13C,0.200000*%
%TD*%
G04 APERTURE END LIST*
D10*
%TO.P,J1,1,Pin_1*%
%TO.N,/L01*%
X2060000Y1270000D03*
D11*
%TO.P,J1,2,Pin_2*%
%TO.N,/L02*%
X4600000Y1270000D03*
%TO.P,J1,3,Pin_3*%
%TO.N,/L03*%
X7140000Y1270000D03*
%TO.P,J1,4,Pin_4*%
%TO.N,/L04*%
X9680000Y1270000D03*
%TO.P,J1,5,Pin_5*%
%TO.N,/L05*%
X12220000Y1270000D03*
%TO.P,J1,6,Pin_6*%
%TO.N,/L06*%
X14760000Y1270000D03*
%TO.P,J1,7,Pin_7*%
%TO.N,/L07*%
X17300000Y1270000D03*
%TO.P,J1,8,Pin_8*%
%TO.N,/L08*%
X19840000Y1270000D03*
%TO.P,J1,9,Pin_9*%
%TO.N,/L09*%
X22380000Y1270000D03*
%TO.P,J1,10,Pin_10*%
%TO.N,/L10*%
X24920000Y1270000D03*
%TO.P,J1,11,Pin_11*%
%TO.N,/L11*%
X27460000Y1270000D03*
%TO.P,J1,12,Pin_12*%
%TO.N,/L12*%
X30000000Y1270000D03*
%TO.P,J1,13,Pin_13*%
%TO.N,/L13*%
X32540000Y1270000D03*
%TO.P,J1,14,Pin_14*%
%TO.N,/L14*%
X35080000Y1270000D03*
%TO.P,J1,15,Pin_15*%
%TO.N,/L15*%
X37620000Y1270000D03*
%TO.P,J1,16,Pin_16*%
%TO.N,/L16*%
X40160000Y1270000D03*
%TO.P,J1,17,Pin_17*%
%TO.N,/L17*%
X42700000Y1270000D03*
%TO.P,J1,18,Pin_18*%
%TO.N,/L18*%
X45240000Y1270000D03*
%TO.P,J1,19,Pin_19*%
%TO.N,/L19*%
X47780000Y1270000D03*
%TO.P,J1,20,Pin_20*%
%TO.N,/L20*%
X50320000Y1270000D03*
%TO.P,J1,21,Pin_21*%
%TO.N,/L21*%
X52860000Y1270000D03*
%TO.P,J1,22,Pin_22*%
%TO.N,/L22*%
X55400000Y1270000D03*
%TO.P,J1,23,Pin_23*%
%TO.N,/L23*%
X57940000Y1270000D03*
%TO.P,J1,24,Pin_24*%
%TO.N,/L24*%
X60480000Y1270000D03*
%TO.P,J1,25,Pin_25*%
%TO.N,/L25*%
X63020000Y1270000D03*
%TO.P,J1,26,Pin_26*%
%TO.N,/L26*%
X65560000Y1270000D03*
%TO.P,J1,27,Pin_27*%
%TO.N,/L27*%
X68100000Y1270000D03*
%TO.P,J1,28,Pin_28*%
%TO.N,/L28*%
X70640000Y1270000D03*
%TO.P,J1,29,Pin_29*%
%TO.N,/L29*%
X73180000Y1270000D03*
%TO.P,J1,30,Pin_30*%
%TO.N,/L30*%
X75720000Y1270000D03*
%TD*%
D10*
%TO.P,J3,1,Pin_1*%
%TO.N,VCC*%
X75720000Y11435000D03*
D11*
%TO.P,J3,2,Pin_2*%
%TO.N,GND*%
X75720000Y8895000D03*
%TD*%
D10*
%TO.P,J2,1,Pin_1*%
%TO.N,/L01*%
X2060000Y19050000D03*
D11*
%TO.P,J2,2,Pin_2*%
X2060000Y21590000D03*
%TO.P,J2,3,Pin_3*%
%TO.N,/L02*%
X4600000Y19050000D03*
%TO.P,J2,4,Pin_4*%
X4600000Y21590000D03*
%TO.P,J2,5,Pin_5*%
%TO.N,/L03*%
X7140000Y19050000D03*
%TO.P,J2,6,Pin_6*%
X7140000Y21590000D03*
%TO.P,J2,7,Pin_7*%
%TO.N,/L04*%
X9680000Y19050000D03*
%TO.P,J2,8,Pin_8*%
X9680000Y21590000D03*
%TO.P,J2,9,Pin_9*%
%TO.N,/L05*%
X12220000Y19050000D03*
%TO.P,J2,10,Pin_10*%
X12220000Y21590000D03*
%TO.P,J2,11,Pin_11*%
%TO.N,/L06*%
X14760000Y19050000D03*
%TO.P,J2,12,Pin_12*%
X14760000Y21590000D03*
%TO.P,J2,13,Pin_13*%
%TO.N,/L07*%
X17300000Y19050000D03*
%TO.P,J2,14,Pin_14*%
X17300000Y21590000D03*
%TO.P,J2,15,Pin_15*%
%TO.N,/L08*%
X19840000Y19050000D03*
%TO.P,J2,16,Pin_16*%
X19840000Y21590000D03*
%TO.P,J2,17,Pin_17*%
%TO.N,/L09*%
X22380000Y19050000D03*
%TO.P,J2,18,Pin_18*%
X22380000Y21590000D03*
%TO.P,J2,19,Pin_19*%
%TO.N,/L10*%
X24920000Y19050000D03*
%TO.P,J2,20,Pin_20*%
X24920000Y21590000D03*
%TO.P,J2,21,Pin_21*%
%TO.N,/L11*%
X27460000Y19050000D03*
%TO.P,J2,22,Pin_22*%
X27460000Y21590000D03*
%TO.P,J2,23,Pin_23*%
%TO.N,/L12*%
X30000000Y19050000D03*
%TO.P,J2,24,Pin_24*%
X30000000Y21590000D03*
%TO.P,J2,25,Pin_25*%
%TO.N,/L13*%
X32540000Y19050000D03*
%TO.P,J2,26,Pin_26*%
X32540000Y21590000D03*
%TO.P,J2,27,Pin_27*%
%TO.N,/L14*%
X35080000Y19050000D03*
%TO.P,J2,28,Pin_28*%
X35080000Y21590000D03*
%TO.P,J2,29,Pin_29*%
%TO.N,/L15*%
X37620000Y19050000D03*
%TO.P,J2,30,Pin_30*%
X37620000Y21590000D03*
%TO.P,J2,31,Pin_31*%
%TO.N,/L16*%
X40160000Y19050000D03*
%TO.P,J2,32,Pin_32*%
X40160000Y21590000D03*
%TO.P,J2,33,Pin_33*%
%TO.N,/L17*%
X42700000Y19050000D03*
%TO.P,J2,34,Pin_34*%
X42700000Y21590000D03*
%TO.P,J2,35,Pin_35*%
%TO.N,/L18*%
X45240000Y19050000D03*
%TO.P,J2,36,Pin_36*%
X45240000Y21590000D03*
%TO.P,J2,37,Pin_37*%
%TO.N,/L19*%
X47780000Y19050000D03*
%TO.P,J2,38,Pin_38*%
X47780000Y21590000D03*
%TO.P,J2,39,Pin_39*%
%TO.N,/L20*%
X50320000Y19050000D03*
%TO.P,J2,40,Pin_40*%
X50320000Y21590000D03*
%TO.P,J2,41,Pin_41*%
%TO.N,/L21*%
X52860000Y19050000D03*
%TO.P,J2,42,Pin_42*%
X52860000Y21590000D03*
%TO.P,J2,43,Pin_43*%
%TO.N,/L22*%
X55400000Y19050000D03*
%TO.P,J2,44,Pin_44*%
X55400000Y21590000D03*
%TO.P,J2,45,Pin_45*%
%TO.N,/L23*%
X57940000Y19050000D03*
%TO.P,J2,46,Pin_46*%
X57940000Y21590000D03*
%TO.P,J2,47,Pin_47*%
%TO.N,/L24*%
X60480000Y19050000D03*
%TO.P,J2,48,Pin_48*%
X60480000Y21590000D03*
%TO.P,J2,49,Pin_49*%
%TO.N,/L25*%
X63020000Y19050000D03*
%TO.P,J2,50,Pin_50*%
X63020000Y21590000D03*
%TO.P,J2,51,Pin_51*%
%TO.N,/L26*%
X65560000Y19050000D03*
%TO.P,J2,52,Pin_52*%
X65560000Y21590000D03*
%TO.P,J2,53,Pin_53*%
%TO.N,/L27*%
X68100000Y19050000D03*
%TO.P,J2,54,Pin_54*%
X68100000Y21590000D03*
%TO.P,J2,55,Pin_55*%
%TO.N,/L28*%
X70640000Y19050000D03*
%TO.P,J2,56,Pin_56*%
X70640000Y21590000D03*
%TO.P,J2,57,Pin_57*%
%TO.N,/L29*%
X73180000Y19050000D03*
%TO.P,J2,58,Pin_58*%
X73180000Y21590000D03*
%TO.P,J2,59,Pin_59*%
%TO.N,/L30*%
X75720000Y19050000D03*
%TO.P,J2,60,Pin_60*%
X75720000Y21590000D03*
%TD*%
D12*
%TO.N,VCC*%
X26190000Y15240000D03*
X66830000Y15240000D03*
X5870000Y15240000D03*
X60734000Y11176000D03*
X65814000Y11176000D03*
X47018000Y11176000D03*
X22126000Y11176000D03*
X3330000Y11176000D03*
X71910000Y15240000D03*
X69370000Y15240000D03*
X1552000Y11176000D03*
X30762000Y11176000D03*
X25174000Y11176000D03*
X41430000Y15240000D03*
X7140000Y11176000D03*
X55654000Y11176000D03*
X52606000Y11176000D03*
X46510000Y15240000D03*
X49050000Y15240000D03*
X56670000Y15240000D03*
X74450000Y15240000D03*
X59210000Y15240000D03*
X26952000Y11176000D03*
X40668000Y11176000D03*
X28730000Y15240000D03*
X11966000Y11176000D03*
X17046000Y11176000D03*
X37112000Y11176000D03*
X38890000Y15240000D03*
X45494000Y11176000D03*
X61750000Y15240000D03*
X36350000Y15240000D03*
X71910000Y12700000D03*
X10696000Y11176000D03*
X18570000Y15240000D03*
X50828000Y11176000D03*
X15014000Y11176000D03*
X16030000Y15240000D03*
X21110000Y15240000D03*
X5870000Y11176000D03*
X32286000Y11176000D03*
X3330000Y15240000D03*
X8410000Y15240000D03*
X67084000Y11176000D03*
X10950000Y15240000D03*
X62766000Y11176000D03*
X35334000Y11176000D03*
X56924000Y11176000D03*
X20856000Y11176000D03*
X51590000Y15240000D03*
X31270000Y15240000D03*
X42446000Y11176000D03*
%TO.N,GND*%
X66830000Y5080000D03*
X61750000Y5080000D03*
X41430000Y5080000D03*
X30762000Y9144000D03*
X26190000Y5080000D03*
X10696000Y9144000D03*
X59210000Y5080000D03*
X37112000Y9144000D03*
X20856000Y9144000D03*
X8410000Y5080000D03*
X25174000Y9144000D03*
X38890000Y5080000D03*
X3330000Y9144000D03*
X28730000Y5080000D03*
X3330000Y5080000D03*
X40668000Y9144000D03*
X45494000Y9144000D03*
X52606000Y9144000D03*
X49050000Y5080000D03*
X56924000Y9144000D03*
X31270000Y5080000D03*
X62766000Y9144000D03*
X5870000Y9144000D03*
X11966000Y9144000D03*
X71910000Y7620000D03*
X46510000Y5080000D03*
X1552000Y9144000D03*
X10950000Y5080000D03*
X67084000Y9144000D03*
X65814000Y9144000D03*
X22126000Y9144000D03*
X7140000Y9144000D03*
X26952000Y9144000D03*
X51590000Y5080000D03*
X60734000Y9144000D03*
X36350000Y5080000D03*
X5870000Y5080000D03*
X18570000Y5080000D03*
X50828000Y9144000D03*
X42446000Y9144000D03*
X69370000Y5080000D03*
X21110000Y5080000D03*
X56670000Y5080000D03*
X17046000Y9144000D03*
X74450000Y5080000D03*
X16030000Y5080000D03*
X47018000Y9144000D03*
X71910000Y5080000D03*
X32286000Y9144000D03*
X35334000Y9144000D03*
X55654000Y9144000D03*
X15014000Y9144000D03*
%TD*%
D13*
%TO.N,/L01*%
X4092000Y3302000D02*
X2060000Y1270000D01*
X4092000Y17018000D02*
X4092000Y3302000D01*
X2060000Y19050000D02*
X4092000Y17018000D01*
X2060000Y21590000D02*
X2060000Y19050000D01*
%TO.N,/L02*%
X4600000Y21590000D02*
X4600000Y1270000D01*
%TO.N,/L03*%
X7140000Y19050000D02*
X5108000Y17018000D01*
X7140000Y21590000D02*
X7140000Y19050000D01*
X5108000Y17018000D02*
X5108000Y3302000D01*
X5108000Y3302000D02*
X7140000Y1270000D01*
%TO.N,/L04*%
X9680000Y19050000D02*
X12728000Y16002000D01*
X12728000Y4318000D02*
X9680000Y1270000D01*
X12728000Y16002000D02*
X12728000Y4318000D01*
X9680000Y21590000D02*
X9680000Y19050000D01*
%TO.N,/L05*%
X13236000Y18034000D02*
X13236000Y2286000D01*
X13236000Y2286000D02*
X12220000Y1270000D01*
X12220000Y19050000D02*
X13236000Y18034000D01*
X12220000Y21590000D02*
X12220000Y19050000D01*
%TO.N,/L06*%
X13744000Y2286000D02*
X14760000Y1270000D01*
X14760000Y19050000D02*
X13744000Y18034000D01*
X14760000Y21590000D02*
X14760000Y19050000D01*
X13744000Y18034000D02*
X13744000Y2286000D01*
%TO.N,/L07*%
X14252000Y16002000D02*
X14252000Y4318000D01*
X17300000Y19050000D02*
X14252000Y16002000D01*
X17300000Y21590000D02*
X17300000Y19050000D01*
X14252000Y4318000D02*
X17300000Y1270000D01*
%TO.N,/L08*%
X19840000Y21590000D02*
X19840000Y19050000D01*
X19840000Y19050000D02*
X22888000Y16002000D01*
X22888000Y16002000D02*
X22888000Y4318000D01*
X22888000Y4318000D02*
X19840000Y1270000D01*
%TO.N,/L30*%
X73688000Y17018000D02*
X73688000Y3302000D01*
X75720000Y19050000D02*
X73688000Y17018000D01*
X75720000Y21590000D02*
X75720000Y19050000D01*
X73688000Y3302000D02*
X75720000Y1270000D01*
%TO.N,/L29*%
X73180000Y21590000D02*
X73180000Y1270000D01*
%TO.N,/L28*%
X72672000Y3302000D02*
X70640000Y1270000D01*
X70640000Y21590000D02*
X70640000Y19050000D01*
X72672000Y17018000D02*
X72672000Y3302000D01*
X70640000Y19050000D02*
X72672000Y17018000D01*
%TO.N,/L27*%
X65052000Y4318000D02*
X68100000Y1270000D01*
X68100000Y21590000D02*
X68100000Y19050000D01*
X65052000Y16002000D02*
X65052000Y4318000D01*
X68100000Y19050000D02*
X65052000Y16002000D01*
%TO.N,/L26*%
X64544000Y18034000D02*
X64544000Y2286000D01*
X65560000Y19050000D02*
X64544000Y18034000D01*
X64544000Y2286000D02*
X65560000Y1270000D01*
X65560000Y21590000D02*
X65560000Y19050000D01*
%TO.N,/L25*%
X64036000Y2286000D02*
X63020000Y1270000D01*
X63020000Y19050000D02*
X64036000Y18034000D01*
X63020000Y21590000D02*
X63020000Y19050000D01*
X64036000Y18034000D02*
X64036000Y2286000D01*
%TO.N,/L24*%
X60480000Y19050000D02*
X63528000Y16002000D01*
X63528000Y4318000D02*
X60480000Y1270000D01*
X63528000Y16002000D02*
X63528000Y4318000D01*
X60480000Y21590000D02*
X60480000Y19050000D01*
%TO.N,/L23*%
X57940000Y19050000D02*
X54892000Y16002000D01*
X54892000Y4318000D02*
X57940000Y1270000D01*
X54892000Y16002000D02*
X54892000Y4318000D01*
X57940000Y21590000D02*
X57940000Y19050000D01*
%TO.N,/L22*%
X55400000Y19050000D02*
X54384000Y18034000D01*
X54384000Y2286000D02*
X55400000Y1270000D01*
X55400000Y21590000D02*
X55400000Y19050000D01*
X54384000Y18034000D02*
X54384000Y2286000D01*
%TO.N,/L21*%
X53876000Y18034000D02*
X53876000Y2286000D01*
X52860000Y21590000D02*
X52860000Y19050000D01*
X53876000Y2286000D02*
X52860000Y1270000D01*
X52860000Y19050000D02*
X53876000Y18034000D01*
%TO.N,/L20*%
X53368000Y16002000D02*
X53368000Y4318000D01*
X50320000Y21590000D02*
X50320000Y19050000D01*
X50320000Y19050000D02*
X53368000Y16002000D01*
X53368000Y4318000D02*
X50320000Y1270000D01*
%TO.N,/L19*%
X47780000Y21590000D02*
X47780000Y19050000D01*
X44732000Y4318000D02*
X47780000Y1270000D01*
X47780000Y19050000D02*
X44732000Y16002000D01*
X44732000Y16002000D02*
X44732000Y4318000D01*
%TO.N,/L18*%
X45240000Y19050000D02*
X44224000Y18034000D01*
X44224000Y18034000D02*
X44224000Y2286000D01*
X45240000Y21590000D02*
X45240000Y19050000D01*
X44224000Y2286000D02*
X45240000Y1270000D01*
%TO.N,/L17*%
X42700000Y21590000D02*
X42700000Y19050000D01*
X43716000Y18034000D02*
X43716000Y2286000D01*
X43716000Y2286000D02*
X42700000Y1270000D01*
X42700000Y19050000D02*
X43716000Y18034000D01*
%TO.N,/L16*%
X40160000Y19050000D02*
X43208000Y16002000D01*
X43208000Y4318000D02*
X40160000Y1270000D01*
X40160000Y21590000D02*
X40160000Y19050000D01*
X43208000Y16002000D02*
X43208000Y4318000D01*
%TO.N,/L15*%
X37620000Y19050000D02*
X34572000Y16002000D01*
X34572000Y16002000D02*
X34572000Y4318000D01*
X34572000Y4318000D02*
X37620000Y1270000D01*
X37620000Y21590000D02*
X37620000Y19050000D01*
%TO.N,/L14*%
X34064000Y18034000D02*
X34064000Y2286000D01*
X35080000Y21590000D02*
X35080000Y19050000D01*
X35080000Y19050000D02*
X34064000Y18034000D01*
X34064000Y2286000D02*
X35080000Y1270000D01*
%TO.N,/L13*%
X33556000Y18034000D02*
X33556000Y2286000D01*
X32540000Y19050000D02*
X33556000Y18034000D01*
X32540000Y21590000D02*
X32540000Y19050000D01*
X33556000Y2286000D02*
X32540000Y1270000D01*
%TO.N,/L12*%
X30000000Y19050000D02*
X33048000Y16002000D01*
X30000000Y21590000D02*
X30000000Y19050000D01*
X33048000Y16002000D02*
X33048000Y4318000D01*
X33048000Y4318000D02*
X30000000Y1270000D01*
%TO.N,/L11*%
X24412000Y4318000D02*
X27460000Y1270000D01*
X24412000Y16002000D02*
X24412000Y4318000D01*
X27460000Y19050000D02*
X24412000Y16002000D01*
X27460000Y21590000D02*
X27460000Y19050000D01*
%TO.N,/L10*%
X23904000Y2286000D02*
X24920000Y1270000D01*
X24920000Y21590000D02*
X24920000Y19050000D01*
X23904000Y18034000D02*
X23904000Y2286000D01*
X24920000Y19050000D02*
X23904000Y18034000D01*
%TO.N,/L09*%
X23396000Y18034000D02*
X23396000Y2286000D01*
X23396000Y2286000D02*
X22380000Y1270000D01*
X22380000Y19050000D02*
X23396000Y18034000D01*
X22380000Y21590000D02*
X22380000Y19050000D01*
%TD*%
%TA.AperFunction,Conductor*%
%TO.N,VCC*%
G36*
X76790695Y18617741D02*
G01*
X76832280Y18560198D01*
X76839500Y18518157D01*
X76839500Y12521059D01*
X76819498Y12452938D01*
X76765842Y12406445D01*
X76695568Y12396341D01*
X76643500Y12416293D01*
X76638846Y12419403D01*
X76616358Y12428718D01*
X76590842Y12433793D01*
X76578588Y12435000D01*
X75992115Y12435000D01*
X75976876Y12430525D01*
X75975671Y12429135D01*
X75974000Y12421452D01*
X75974000Y11307000D01*
X75953998Y11238879D01*
X75900342Y11192386D01*
X75848000Y11181000D01*
X74738116Y11181000D01*
X74722877Y11176525D01*
X74721672Y11175135D01*
X74720001Y11167452D01*
X74720001Y10576414D01*
X74721815Y10557998D01*
X74720525Y10557871D01*
X74714794Y10493862D01*
X74671237Y10437797D01*
X74597545Y10414000D01*
X74064500Y10414000D01*
X73996379Y10434002D01*
X73949886Y10487658D01*
X73938500Y10540000D01*
X73938500Y11707115D01*
X74720000Y11707115D01*
X74724475Y11691876D01*
X74725865Y11690671D01*
X74733548Y11689000D01*
X75447885Y11689000D01*
X75463124Y11693475D01*
X75464329Y11694865D01*
X75466000Y11702548D01*
X75466000Y12416884D01*
X75461525Y12432123D01*
X75460135Y12433328D01*
X75452452Y12434999D01*
X74861414Y12434999D01*
X74849154Y12433791D01*
X74823648Y12428718D01*
X74801152Y12419401D01*
X74772172Y12400037D01*
X74754963Y12382828D01*
X74735596Y12353844D01*
X74726282Y12331358D01*
X74721207Y12305842D01*
X74720000Y12293588D01*
X74720000Y11707115D01*
X73938500Y11707115D01*
X73938500Y16862050D01*
X73958502Y16930171D01*
X73975405Y16951145D01*
X75144600Y18120340D01*
X75206912Y18154366D01*
X75277727Y18149301D01*
X75295158Y18141237D01*
X75317513Y18128743D01*
X75504118Y18068111D01*
X75698946Y18044879D01*
X75705081Y18045351D01*
X75705083Y18045351D01*
X75888434Y18059459D01*
X75888438Y18059460D01*
X75894576Y18059932D01*
X76083556Y18112697D01*
X76258689Y18201163D01*
X76279362Y18217314D01*
X76408453Y18318171D01*
X76413303Y18321960D01*
X76443084Y18356461D01*
X76537485Y18465827D01*
X76537485Y18465828D01*
X76541509Y18470489D01*
X76564459Y18510887D01*
X76603944Y18580394D01*
X76654983Y18629745D01*
X76724601Y18643667D01*
X76790695Y18617741D01*
G37*
%TD.AperFunction*%
%TA.AperFunction,Conductor*%
G36*
X19376928Y22689498D02*
G01*
X19423421Y22635842D01*
X19433525Y22565568D01*
X19404031Y22500988D01*
X19367182Y22471838D01*
X19294972Y22434088D01*
X19294968Y22434085D01*
X19289512Y22431233D01*
X19284712Y22427373D01*
X19284711Y22427373D01*
X19271361Y22416639D01*
X19136600Y22308289D01*
X19010480Y22157984D01*
X19007516Y22152592D01*
X19007513Y22152588D01*
X18990200Y22121095D01*
X18915956Y21986046D01*
X18856628Y21799022D01*
X18834757Y21604037D01*
X18851175Y21408517D01*
X18905258Y21219909D01*
X18908076Y21214426D01*
X18992123Y21050887D01*
X18992126Y21050883D01*
X18994944Y21045399D01*
X19116818Y20891631D01*
X19266238Y20764465D01*
X19271616Y20761459D01*
X19271618Y20761458D01*
X19307932Y20741163D01*
X19437513Y20668743D01*
X19502438Y20647647D01*
X19561042Y20607574D01*
X19588679Y20542178D01*
X19589500Y20527815D01*
X19589500Y20113511D01*
X19569498Y20045390D01*
X19515842Y19998897D01*
X19499087Y19992642D01*
X19463393Y19982136D01*
X19379818Y19938444D01*
X19294972Y19894088D01*
X19294968Y19894085D01*
X19289512Y19891233D01*
X19284712Y19887373D01*
X19284711Y19887373D01*
X19250326Y19859727D01*
X19136600Y19768289D01*
X19010480Y19617984D01*
X19007516Y19612592D01*
X19007513Y19612588D01*
X18990200Y19581095D01*
X18915956Y19446046D01*
X18856628Y19259022D01*
X18834757Y19064037D01*
X18851175Y18868517D01*
X18905258Y18679909D01*
X18908076Y18674426D01*
X18992123Y18510887D01*
X18992126Y18510883D01*
X18994944Y18505399D01*
X19116818Y18351631D01*
X19266238Y18224465D01*
X19271616Y18221459D01*
X19271618Y18221458D01*
X19307932Y18201163D01*
X19437513Y18128743D01*
X19624118Y18068111D01*
X19818946Y18044879D01*
X19825081Y18045351D01*
X19825083Y18045351D01*
X20008434Y18059459D01*
X20008438Y18059460D01*
X20014576Y18059932D01*
X20203556Y18112697D01*
X20267970Y18145235D01*
X20337792Y18158095D01*
X20403483Y18131166D01*
X20413876Y18121864D01*
X22600595Y15935145D01*
X22634621Y15872833D01*
X22637500Y15846050D01*
X22637500Y10540000D01*
X22617498Y10471879D01*
X22563842Y10425386D01*
X22511500Y10414000D01*
X20996187Y10414000D01*
X20983837Y10414607D01*
X20807260Y10431999D01*
X20783043Y10436815D01*
X20619190Y10486518D01*
X20596371Y10495971D01*
X20513998Y10540000D01*
X20445369Y10576683D01*
X20424842Y10590399D01*
X20292479Y10699026D01*
X20275020Y10716486D01*
X20169101Y10845549D01*
X20141347Y10910896D01*
X20140500Y10925482D01*
X20140500Y12623598D01*
X20141516Y12631315D01*
X20141516Y12643977D01*
X20145809Y12660000D01*
X20144328Y12665527D01*
X20136684Y12757772D01*
X20128103Y12861335D01*
X20128102Y12861340D01*
X20127672Y12866531D01*
X20076798Y13067428D01*
X19993551Y13257212D01*
X19880202Y13430706D01*
X19876677Y13434535D01*
X19876674Y13434539D01*
X19743375Y13579339D01*
X19739843Y13583176D01*
X19576303Y13710465D01*
X19394042Y13809100D01*
X19198032Y13876390D01*
X19192898Y13877247D01*
X19192893Y13877248D01*
X18998756Y13909643D01*
X18998754Y13909643D01*
X18993619Y13910500D01*
X18786381Y13910500D01*
X18781246Y13909643D01*
X18781244Y13909643D01*
X18587107Y13877248D01*
X18587102Y13877247D01*
X18581968Y13876390D01*
X18385958Y13809100D01*
X18203697Y13710465D01*
X18040157Y13583176D01*
X18036625Y13579339D01*
X17903326Y13434539D01*
X17903323Y13434535D01*
X17899798Y13430706D01*
X17786449Y13257212D01*
X17703202Y13067428D01*
X17652328Y12866531D01*
X17651898Y12861340D01*
X17651897Y12861335D01*
X17644678Y12774211D01*
X17635672Y12665527D01*
X17634191Y12660000D01*
X17638484Y12643977D01*
X17638484Y12631315D01*
X17639500Y12623598D01*
X17639500Y10925482D01*
X17619498Y10857361D01*
X17610899Y10845549D01*
X17504980Y10716486D01*
X17487521Y10699026D01*
X17355158Y10590399D01*
X17334631Y10576683D01*
X17266002Y10540000D01*
X17183629Y10495971D01*
X17160810Y10486518D01*
X16996957Y10436815D01*
X16972740Y10431999D01*
X16796163Y10414607D01*
X16783813Y10414000D01*
X14628500Y10414000D01*
X14560379Y10434002D01*
X14513886Y10487658D01*
X14502500Y10540000D01*
X14502500Y15846050D01*
X14522502Y15914171D01*
X14539405Y15935145D01*
X16724600Y18120340D01*
X16786912Y18154366D01*
X16857727Y18149301D01*
X16875158Y18141237D01*
X16897513Y18128743D01*
X17084118Y18068111D01*
X17278946Y18044879D01*
X17285081Y18045351D01*
X17285083Y18045351D01*
X17468434Y18059459D01*
X17468438Y18059460D01*
X17474576Y18059932D01*
X17663556Y18112697D01*
X17838689Y18201163D01*
X17859362Y18217314D01*
X17988453Y18318171D01*
X17993303Y18321960D01*
X18023084Y18356461D01*
X18117485Y18465827D01*
X18117485Y18465828D01*
X18121509Y18470489D01*
X18218425Y18641091D01*
X18280358Y18827268D01*
X18304949Y19021929D01*
X18305341Y19050000D01*
X18286194Y19245272D01*
X18284413Y19251171D01*
X18284412Y19251176D01*
X18231265Y19427207D01*
X18229484Y19433106D01*
X18137370Y19606347D01*
X18013361Y19758398D01*
X17862180Y19883465D01*
X17689585Y19976787D01*
X17639241Y19992371D01*
X17580081Y20031622D01*
X17551534Y20096627D01*
X17550500Y20112736D01*
X17550500Y20525492D01*
X17570502Y20593613D01*
X17624158Y20640106D01*
X17642612Y20646849D01*
X17663556Y20652697D01*
X17838689Y20741163D01*
X17868515Y20764465D01*
X17988453Y20858171D01*
X17993303Y20861960D01*
X18023084Y20896461D01*
X18117485Y21005827D01*
X18117485Y21005828D01*
X18121509Y21010489D01*
X18218425Y21181091D01*
X18280358Y21367268D01*
X18304949Y21561929D01*
X18305341Y21590000D01*
X18286194Y21785272D01*
X18284413Y21791171D01*
X18284412Y21791176D01*
X18231265Y21967207D01*
X18229484Y21973106D01*
X18137370Y22146347D01*
X18013361Y22298398D01*
X17862180Y22423465D01*
X17825504Y22443296D01*
X17771189Y22472664D01*
X17720780Y22522659D01*
X17705403Y22591971D01*
X17729939Y22658593D01*
X17786599Y22701373D01*
X17831118Y22709500D01*
X19308807Y22709500D01*
X19376928Y22689498D01*
G37*
%TD.AperFunction*%
%TA.AperFunction,Conductor*%
G36*
X1136500Y18068107D02*
G01*
X1151278Y18058233D01*
X1195180Y18049500D01*
X2654050Y18049500D01*
X2722171Y18029498D01*
X2743145Y18012595D01*
X3804595Y16951145D01*
X3838621Y16888833D01*
X3841500Y16862050D01*
X3841500Y10540000D01*
X3821498Y10471879D01*
X3767842Y10425386D01*
X3715500Y10414000D01*
X1796187Y10414000D01*
X1783837Y10414607D01*
X1607260Y10431999D01*
X1583043Y10436815D01*
X1419190Y10486518D01*
X1396371Y10495971D01*
X1313998Y10540000D01*
X1245369Y10576683D01*
X1224842Y10590399D01*
X1092479Y10699026D01*
X1075020Y10716486D01*
X969101Y10845549D01*
X941347Y10910896D01*
X940500Y10925482D01*
X940500Y17963342D01*
X960502Y18031463D01*
X1014158Y18077956D01*
X1084432Y18088060D01*
X1136500Y18068107D01*
G37*
%TD.AperFunction*%
%TA.AperFunction,Conductor*%
G36*
X60016928Y22689498D02*
G01*
X60063421Y22635842D01*
X60073525Y22565568D01*
X60044031Y22500988D01*
X60007182Y22471838D01*
X59934972Y22434088D01*
X59934968Y22434085D01*
X59929512Y22431233D01*
X59924712Y22427373D01*
X59924711Y22427373D01*
X59911361Y22416639D01*
X59776600Y22308289D01*
X59650480Y22157984D01*
X59647516Y22152592D01*
X59647513Y22152588D01*
X59630200Y22121095D01*
X59555956Y21986046D01*
X59496628Y21799022D01*
X59474757Y21604037D01*
X59491175Y21408517D01*
X59545258Y21219909D01*
X59548076Y21214426D01*
X59632123Y21050887D01*
X59632126Y21050883D01*
X59634944Y21045399D01*
X59756818Y20891631D01*
X59906238Y20764465D01*
X59911616Y20761459D01*
X59911618Y20761458D01*
X59947932Y20741163D01*
X60077513Y20668743D01*
X60142438Y20647647D01*
X60201042Y20607574D01*
X60228679Y20542178D01*
X60229500Y20527815D01*
X60229500Y20113511D01*
X60209498Y20045390D01*
X60155842Y19998897D01*
X60139087Y19992642D01*
X60103393Y19982136D01*
X60019818Y19938444D01*
X59934972Y19894088D01*
X59934968Y19894085D01*
X59929512Y19891233D01*
X59924712Y19887373D01*
X59924711Y19887373D01*
X59890326Y19859727D01*
X59776600Y19768289D01*
X59650480Y19617984D01*
X59647516Y19612592D01*
X59647513Y19612588D01*
X59630200Y19581095D01*
X59555956Y19446046D01*
X59496628Y19259022D01*
X59474757Y19064037D01*
X59491175Y18868517D01*
X59545258Y18679909D01*
X59548076Y18674426D01*
X59632123Y18510887D01*
X59632126Y18510883D01*
X59634944Y18505399D01*
X59756818Y18351631D01*
X59906238Y18224465D01*
X59911616Y18221459D01*
X59911618Y18221458D01*
X59947932Y18201163D01*
X60077513Y18128743D01*
X60264118Y18068111D01*
X60458946Y18044879D01*
X60465081Y18045351D01*
X60465083Y18045351D01*
X60648434Y18059459D01*
X60648438Y18059460D01*
X60654576Y18059932D01*
X60843556Y18112697D01*
X60907970Y18145235D01*
X60977792Y18158095D01*
X61043483Y18131166D01*
X61053876Y18121864D01*
X63240595Y15935145D01*
X63274621Y15872833D01*
X63277500Y15846050D01*
X63277500Y10540000D01*
X63257498Y10471879D01*
X63203842Y10425386D01*
X63151500Y10414000D01*
X60996187Y10414000D01*
X60983837Y10414607D01*
X60807260Y10431999D01*
X60783043Y10436815D01*
X60619190Y10486518D01*
X60596371Y10495971D01*
X60513998Y10540000D01*
X60445369Y10576683D01*
X60424842Y10590399D01*
X60292479Y10699026D01*
X60275020Y10716486D01*
X60169101Y10845549D01*
X60141347Y10910896D01*
X60140500Y10925482D01*
X60140500Y12623598D01*
X60141516Y12631315D01*
X60141516Y12643977D01*
X60145809Y12660000D01*
X60144328Y12665527D01*
X60136684Y12757772D01*
X60128103Y12861335D01*
X60128102Y12861340D01*
X60127672Y12866531D01*
X60076798Y13067428D01*
X59993551Y13257212D01*
X59880202Y13430706D01*
X59876677Y13434535D01*
X59876674Y13434539D01*
X59743375Y13579339D01*
X59739843Y13583176D01*
X59576303Y13710465D01*
X59394042Y13809100D01*
X59198032Y13876390D01*
X59192898Y13877247D01*
X59192893Y13877248D01*
X58998756Y13909643D01*
X58998754Y13909643D01*
X58993619Y13910500D01*
X58786381Y13910500D01*
X58781246Y13909643D01*
X58781244Y13909643D01*
X58587107Y13877248D01*
X58587102Y13877247D01*
X58581968Y13876390D01*
X58385958Y13809100D01*
X58203697Y13710465D01*
X58040157Y13583176D01*
X58036625Y13579339D01*
X57903326Y13434539D01*
X57903323Y13434535D01*
X57899798Y13430706D01*
X57786449Y13257212D01*
X57703202Y13067428D01*
X57652328Y12866531D01*
X57651898Y12861340D01*
X57651897Y12861335D01*
X57644678Y12774211D01*
X57635672Y12665527D01*
X57634191Y12660000D01*
X57638484Y12643977D01*
X57638484Y12631315D01*
X57639500Y12623598D01*
X57639500Y10925482D01*
X57619498Y10857361D01*
X57610899Y10845549D01*
X57504980Y10716486D01*
X57487521Y10699026D01*
X57355158Y10590399D01*
X57334631Y10576683D01*
X57266002Y10540000D01*
X57183629Y10495971D01*
X57160810Y10486518D01*
X56996957Y10436815D01*
X56972740Y10431999D01*
X56796163Y10414607D01*
X56783813Y10414000D01*
X55268500Y10414000D01*
X55200379Y10434002D01*
X55153886Y10487658D01*
X55142500Y10540000D01*
X55142500Y15846050D01*
X55162502Y15914171D01*
X55179405Y15935145D01*
X57364600Y18120340D01*
X57426912Y18154366D01*
X57497727Y18149301D01*
X57515158Y18141237D01*
X57537513Y18128743D01*
X57724118Y18068111D01*
X57918946Y18044879D01*
X57925081Y18045351D01*
X57925083Y18045351D01*
X58108434Y18059459D01*
X58108438Y18059460D01*
X58114576Y18059932D01*
X58303556Y18112697D01*
X58478689Y18201163D01*
X58499362Y18217314D01*
X58628453Y18318171D01*
X58633303Y18321960D01*
X58663084Y18356461D01*
X58757485Y18465827D01*
X58757485Y18465828D01*
X58761509Y18470489D01*
X58858425Y18641091D01*
X58920358Y18827268D01*
X58944949Y19021929D01*
X58945341Y19050000D01*
X58926194Y19245272D01*
X58924413Y19251171D01*
X58924412Y19251176D01*
X58871265Y19427207D01*
X58869484Y19433106D01*
X58777370Y19606347D01*
X58653361Y19758398D01*
X58502180Y19883465D01*
X58329585Y19976787D01*
X58279241Y19992371D01*
X58220081Y20031622D01*
X58191534Y20096627D01*
X58190500Y20112736D01*
X58190500Y20525492D01*
X58210502Y20593613D01*
X58264158Y20640106D01*
X58282612Y20646849D01*
X58303556Y20652697D01*
X58478689Y20741163D01*
X58508515Y20764465D01*
X58628453Y20858171D01*
X58633303Y20861960D01*
X58663084Y20896461D01*
X58757485Y21005827D01*
X58757485Y21005828D01*
X58761509Y21010489D01*
X58858425Y21181091D01*
X58920358Y21367268D01*
X58944949Y21561929D01*
X58945341Y21590000D01*
X58926194Y21785272D01*
X58924413Y21791171D01*
X58924412Y21791176D01*
X58871265Y21967207D01*
X58869484Y21973106D01*
X58777370Y22146347D01*
X58653361Y22298398D01*
X58502180Y22423465D01*
X58465504Y22443296D01*
X58411189Y22472664D01*
X58360780Y22522659D01*
X58345403Y22591971D01*
X58369939Y22658593D01*
X58426599Y22701373D01*
X58471118Y22709500D01*
X59948807Y22709500D01*
X60016928Y22689498D01*
G37*
%TD.AperFunction*%
%TA.AperFunction,Conductor*%
G36*
X39696928Y22689498D02*
G01*
X39743421Y22635842D01*
X39753525Y22565568D01*
X39724031Y22500988D01*
X39687182Y22471838D01*
X39614972Y22434088D01*
X39614968Y22434085D01*
X39609512Y22431233D01*
X39604712Y22427373D01*
X39604711Y22427373D01*
X39591361Y22416639D01*
X39456600Y22308289D01*
X39330480Y22157984D01*
X39327516Y22152592D01*
X39327513Y22152588D01*
X39310200Y22121095D01*
X39235956Y21986046D01*
X39176628Y21799022D01*
X39154757Y21604037D01*
X39171175Y21408517D01*
X39225258Y21219909D01*
X39228076Y21214426D01*
X39312123Y21050887D01*
X39312126Y21050883D01*
X39314944Y21045399D01*
X39436818Y20891631D01*
X39586238Y20764465D01*
X39591616Y20761459D01*
X39591618Y20761458D01*
X39627932Y20741163D01*
X39757513Y20668743D01*
X39822438Y20647647D01*
X39881042Y20607574D01*
X39908679Y20542178D01*
X39909500Y20527815D01*
X39909500Y20113511D01*
X39889498Y20045390D01*
X39835842Y19998897D01*
X39819087Y19992642D01*
X39783393Y19982136D01*
X39699818Y19938444D01*
X39614972Y19894088D01*
X39614968Y19894085D01*
X39609512Y19891233D01*
X39604712Y19887373D01*
X39604711Y19887373D01*
X39570326Y19859727D01*
X39456600Y19768289D01*
X39330480Y19617984D01*
X39327516Y19612592D01*
X39327513Y19612588D01*
X39310200Y19581095D01*
X39235956Y19446046D01*
X39176628Y19259022D01*
X39154757Y19064037D01*
X39171175Y18868517D01*
X39225258Y18679909D01*
X39228076Y18674426D01*
X39312123Y18510887D01*
X39312126Y18510883D01*
X39314944Y18505399D01*
X39436818Y18351631D01*
X39586238Y18224465D01*
X39591616Y18221459D01*
X39591618Y18221458D01*
X39627932Y18201163D01*
X39757513Y18128743D01*
X39944118Y18068111D01*
X40138946Y18044879D01*
X40145081Y18045351D01*
X40145083Y18045351D01*
X40328434Y18059459D01*
X40328438Y18059460D01*
X40334576Y18059932D01*
X40523556Y18112697D01*
X40587970Y18145235D01*
X40657792Y18158095D01*
X40723483Y18131166D01*
X40733876Y18121864D01*
X42920595Y15935145D01*
X42954621Y15872833D01*
X42957500Y15846050D01*
X42957500Y10540000D01*
X42937498Y10471879D01*
X42883842Y10425386D01*
X42831500Y10414000D01*
X40996187Y10414000D01*
X40983837Y10414607D01*
X40807260Y10431999D01*
X40783043Y10436815D01*
X40619190Y10486518D01*
X40596371Y10495971D01*
X40513998Y10540000D01*
X40445369Y10576683D01*
X40424842Y10590399D01*
X40292479Y10699026D01*
X40275020Y10716486D01*
X40169101Y10845549D01*
X40141347Y10910896D01*
X40140500Y10925482D01*
X40140500Y12623598D01*
X40141516Y12631315D01*
X40141516Y12643977D01*
X40145809Y12660000D01*
X40144328Y12665527D01*
X40136684Y12757772D01*
X40128103Y12861335D01*
X40128102Y12861340D01*
X40127672Y12866531D01*
X40076798Y13067428D01*
X39993551Y13257212D01*
X39880202Y13430706D01*
X39876677Y13434535D01*
X39876674Y13434539D01*
X39743375Y13579339D01*
X39739843Y13583176D01*
X39576303Y13710465D01*
X39394042Y13809100D01*
X39198032Y13876390D01*
X39192898Y13877247D01*
X39192893Y13877248D01*
X38998756Y13909643D01*
X38998754Y13909643D01*
X38993619Y13910500D01*
X38786381Y13910500D01*
X38781246Y13909643D01*
X38781244Y13909643D01*
X38587107Y13877248D01*
X38587102Y13877247D01*
X38581968Y13876390D01*
X38385958Y13809100D01*
X38203697Y13710465D01*
X38040157Y13583176D01*
X38036625Y13579339D01*
X37903326Y13434539D01*
X37903323Y13434535D01*
X37899798Y13430706D01*
X37786449Y13257212D01*
X37703202Y13067428D01*
X37652328Y12866531D01*
X37651898Y12861340D01*
X37651897Y12861335D01*
X37644678Y12774211D01*
X37635672Y12665527D01*
X37634191Y12660000D01*
X37638484Y12643977D01*
X37638484Y12631315D01*
X37639500Y12623598D01*
X37639500Y10925482D01*
X37619498Y10857361D01*
X37610899Y10845549D01*
X37504980Y10716486D01*
X37487521Y10699026D01*
X37355158Y10590399D01*
X37334631Y10576683D01*
X37266002Y10540000D01*
X37183629Y10495971D01*
X37160810Y10486518D01*
X36996957Y10436815D01*
X36972740Y10431999D01*
X36796163Y10414607D01*
X36783813Y10414000D01*
X34948500Y10414000D01*
X34880379Y10434002D01*
X34833886Y10487658D01*
X34822500Y10540000D01*
X34822500Y15846050D01*
X34842502Y15914171D01*
X34859405Y15935145D01*
X37044600Y18120340D01*
X37106912Y18154366D01*
X37177727Y18149301D01*
X37195158Y18141237D01*
X37217513Y18128743D01*
X37404118Y18068111D01*
X37598946Y18044879D01*
X37605081Y18045351D01*
X37605083Y18045351D01*
X37788434Y18059459D01*
X37788438Y18059460D01*
X37794576Y18059932D01*
X37983556Y18112697D01*
X38158689Y18201163D01*
X38179362Y18217314D01*
X38308453Y18318171D01*
X38313303Y18321960D01*
X38343084Y18356461D01*
X38437485Y18465827D01*
X38437485Y18465828D01*
X38441509Y18470489D01*
X38538425Y18641091D01*
X38600358Y18827268D01*
X38624949Y19021929D01*
X38625341Y19050000D01*
X38606194Y19245272D01*
X38604413Y19251171D01*
X38604412Y19251176D01*
X38551265Y19427207D01*
X38549484Y19433106D01*
X38457370Y19606347D01*
X38333361Y19758398D01*
X38182180Y19883465D01*
X38009585Y19976787D01*
X37959241Y19992371D01*
X37900081Y20031622D01*
X37871534Y20096627D01*
X37870500Y20112736D01*
X37870500Y20525492D01*
X37890502Y20593613D01*
X37944158Y20640106D01*
X37962612Y20646849D01*
X37983556Y20652697D01*
X38158689Y20741163D01*
X38188515Y20764465D01*
X38308453Y20858171D01*
X38313303Y20861960D01*
X38343084Y20896461D01*
X38437485Y21005827D01*
X38437485Y21005828D01*
X38441509Y21010489D01*
X38538425Y21181091D01*
X38600358Y21367268D01*
X38624949Y21561929D01*
X38625341Y21590000D01*
X38606194Y21785272D01*
X38604413Y21791171D01*
X38604412Y21791176D01*
X38551265Y21967207D01*
X38549484Y21973106D01*
X38457370Y22146347D01*
X38333361Y22298398D01*
X38182180Y22423465D01*
X38145504Y22443296D01*
X38091189Y22472664D01*
X38040780Y22522659D01*
X38025403Y22591971D01*
X38049939Y22658593D01*
X38106599Y22701373D01*
X38151118Y22709500D01*
X39628807Y22709500D01*
X39696928Y22689498D01*
G37*
%TD.AperFunction*%
%TA.AperFunction,Conductor*%
G36*
X29536928Y22689498D02*
G01*
X29583421Y22635842D01*
X29593525Y22565568D01*
X29564031Y22500988D01*
X29527182Y22471838D01*
X29454972Y22434088D01*
X29454968Y22434085D01*
X29449512Y22431233D01*
X29444712Y22427373D01*
X29444711Y22427373D01*
X29431361Y22416639D01*
X29296600Y22308289D01*
X29170480Y22157984D01*
X29167516Y22152592D01*
X29167513Y22152588D01*
X29150200Y22121095D01*
X29075956Y21986046D01*
X29016628Y21799022D01*
X28994757Y21604037D01*
X29011175Y21408517D01*
X29065258Y21219909D01*
X29068076Y21214426D01*
X29152123Y21050887D01*
X29152126Y21050883D01*
X29154944Y21045399D01*
X29276818Y20891631D01*
X29426238Y20764465D01*
X29431616Y20761459D01*
X29431618Y20761458D01*
X29467932Y20741163D01*
X29597513Y20668743D01*
X29662438Y20647647D01*
X29721042Y20607574D01*
X29748679Y20542178D01*
X29749500Y20527815D01*
X29749500Y20113511D01*
X29729498Y20045390D01*
X29675842Y19998897D01*
X29659087Y19992642D01*
X29623393Y19982136D01*
X29539818Y19938444D01*
X29454972Y19894088D01*
X29454968Y19894085D01*
X29449512Y19891233D01*
X29444712Y19887373D01*
X29444711Y19887373D01*
X29410326Y19859727D01*
X29296600Y19768289D01*
X29170480Y19617984D01*
X29167516Y19612592D01*
X29167513Y19612588D01*
X29150200Y19581095D01*
X29075956Y19446046D01*
X29016628Y19259022D01*
X28994757Y19064037D01*
X29011175Y18868517D01*
X29065258Y18679909D01*
X29068076Y18674426D01*
X29152123Y18510887D01*
X29152126Y18510883D01*
X29154944Y18505399D01*
X29276818Y18351631D01*
X29426238Y18224465D01*
X29431616Y18221459D01*
X29431618Y18221458D01*
X29467932Y18201163D01*
X29597513Y18128743D01*
X29784118Y18068111D01*
X29978946Y18044879D01*
X29985081Y18045351D01*
X29985083Y18045351D01*
X30168434Y18059459D01*
X30168438Y18059460D01*
X30174576Y18059932D01*
X30363556Y18112697D01*
X30427970Y18145235D01*
X30497792Y18158095D01*
X30563483Y18131166D01*
X30573876Y18121864D01*
X32760595Y15935145D01*
X32794621Y15872833D01*
X32797500Y15846050D01*
X32797500Y10540000D01*
X32777498Y10471879D01*
X32723842Y10425386D01*
X32671500Y10414000D01*
X30996187Y10414000D01*
X30983837Y10414607D01*
X30807260Y10431999D01*
X30783043Y10436815D01*
X30619190Y10486518D01*
X30596371Y10495971D01*
X30513998Y10540000D01*
X30445369Y10576683D01*
X30424842Y10590399D01*
X30292479Y10699026D01*
X30275020Y10716486D01*
X30169101Y10845549D01*
X30141347Y10910896D01*
X30140500Y10925482D01*
X30140500Y12623598D01*
X30141516Y12631315D01*
X30141516Y12643977D01*
X30145809Y12660000D01*
X30144328Y12665527D01*
X30136684Y12757772D01*
X30128103Y12861335D01*
X30128102Y12861340D01*
X30127672Y12866531D01*
X30076798Y13067428D01*
X29993551Y13257212D01*
X29880202Y13430706D01*
X29876677Y13434535D01*
X29876674Y13434539D01*
X29743375Y13579339D01*
X29739843Y13583176D01*
X29576303Y13710465D01*
X29394042Y13809100D01*
X29198032Y13876390D01*
X29192898Y13877247D01*
X29192893Y13877248D01*
X28998756Y13909643D01*
X28998754Y13909643D01*
X28993619Y13910500D01*
X28786381Y13910500D01*
X28781246Y13909643D01*
X28781244Y13909643D01*
X28587107Y13877248D01*
X28587102Y13877247D01*
X28581968Y13876390D01*
X28385958Y13809100D01*
X28203697Y13710465D01*
X28040157Y13583176D01*
X28036625Y13579339D01*
X27903326Y13434539D01*
X27903323Y13434535D01*
X27899798Y13430706D01*
X27786449Y13257212D01*
X27703202Y13067428D01*
X27652328Y12866531D01*
X27651898Y12861340D01*
X27651897Y12861335D01*
X27644678Y12774211D01*
X27635672Y12665527D01*
X27634191Y12660000D01*
X27638484Y12643977D01*
X27638484Y12631315D01*
X27639500Y12623598D01*
X27639500Y10925482D01*
X27619498Y10857361D01*
X27610899Y10845549D01*
X27504980Y10716486D01*
X27487521Y10699026D01*
X27355158Y10590399D01*
X27334631Y10576683D01*
X27266002Y10540000D01*
X27183629Y10495971D01*
X27160810Y10486518D01*
X26996957Y10436815D01*
X26972740Y10431999D01*
X26796163Y10414607D01*
X26783813Y10414000D01*
X24788500Y10414000D01*
X24720379Y10434002D01*
X24673886Y10487658D01*
X24662500Y10540000D01*
X24662500Y15846050D01*
X24682502Y15914171D01*
X24699405Y15935145D01*
X26884600Y18120340D01*
X26946912Y18154366D01*
X27017727Y18149301D01*
X27035158Y18141237D01*
X27057513Y18128743D01*
X27244118Y18068111D01*
X27438946Y18044879D01*
X27445081Y18045351D01*
X27445083Y18045351D01*
X27628434Y18059459D01*
X27628438Y18059460D01*
X27634576Y18059932D01*
X27823556Y18112697D01*
X27998689Y18201163D01*
X28019362Y18217314D01*
X28148453Y18318171D01*
X28153303Y18321960D01*
X28183084Y18356461D01*
X28277485Y18465827D01*
X28277485Y18465828D01*
X28281509Y18470489D01*
X28378425Y18641091D01*
X28440358Y18827268D01*
X28464949Y19021929D01*
X28465341Y19050000D01*
X28446194Y19245272D01*
X28444413Y19251171D01*
X28444412Y19251176D01*
X28391265Y19427207D01*
X28389484Y19433106D01*
X28297370Y19606347D01*
X28173361Y19758398D01*
X28022180Y19883465D01*
X27849585Y19976787D01*
X27799241Y19992371D01*
X27740081Y20031622D01*
X27711534Y20096627D01*
X27710500Y20112736D01*
X27710500Y20525492D01*
X27730502Y20593613D01*
X27784158Y20640106D01*
X27802612Y20646849D01*
X27823556Y20652697D01*
X27998689Y20741163D01*
X28028515Y20764465D01*
X28148453Y20858171D01*
X28153303Y20861960D01*
X28183084Y20896461D01*
X28277485Y21005827D01*
X28277485Y21005828D01*
X28281509Y21010489D01*
X28378425Y21181091D01*
X28440358Y21367268D01*
X28464949Y21561929D01*
X28465341Y21590000D01*
X28446194Y21785272D01*
X28444413Y21791171D01*
X28444412Y21791176D01*
X28391265Y21967207D01*
X28389484Y21973106D01*
X28297370Y22146347D01*
X28173361Y22298398D01*
X28022180Y22423465D01*
X27985504Y22443296D01*
X27931189Y22472664D01*
X27880780Y22522659D01*
X27865403Y22591971D01*
X27889939Y22658593D01*
X27946599Y22701373D01*
X27991118Y22709500D01*
X29468807Y22709500D01*
X29536928Y22689498D01*
G37*
%TD.AperFunction*%
%TA.AperFunction,Conductor*%
G36*
X49856928Y22689498D02*
G01*
X49903421Y22635842D01*
X49913525Y22565568D01*
X49884031Y22500988D01*
X49847182Y22471838D01*
X49774972Y22434088D01*
X49774968Y22434085D01*
X49769512Y22431233D01*
X49764712Y22427373D01*
X49764711Y22427373D01*
X49751361Y22416639D01*
X49616600Y22308289D01*
X49490480Y22157984D01*
X49487516Y22152592D01*
X49487513Y22152588D01*
X49470200Y22121095D01*
X49395956Y21986046D01*
X49336628Y21799022D01*
X49314757Y21604037D01*
X49331175Y21408517D01*
X49385258Y21219909D01*
X49388076Y21214426D01*
X49472123Y21050887D01*
X49472126Y21050883D01*
X49474944Y21045399D01*
X49596818Y20891631D01*
X49746238Y20764465D01*
X49751616Y20761459D01*
X49751618Y20761458D01*
X49787932Y20741163D01*
X49917513Y20668743D01*
X49982438Y20647647D01*
X50041042Y20607574D01*
X50068679Y20542178D01*
X50069500Y20527815D01*
X50069500Y20113511D01*
X50049498Y20045390D01*
X49995842Y19998897D01*
X49979087Y19992642D01*
X49943393Y19982136D01*
X49859818Y19938444D01*
X49774972Y19894088D01*
X49774968Y19894085D01*
X49769512Y19891233D01*
X49764712Y19887373D01*
X49764711Y19887373D01*
X49730326Y19859727D01*
X49616600Y19768289D01*
X49490480Y19617984D01*
X49487516Y19612592D01*
X49487513Y19612588D01*
X49470200Y19581095D01*
X49395956Y19446046D01*
X49336628Y19259022D01*
X49314757Y19064037D01*
X49331175Y18868517D01*
X49385258Y18679909D01*
X49388076Y18674426D01*
X49472123Y18510887D01*
X49472126Y18510883D01*
X49474944Y18505399D01*
X49596818Y18351631D01*
X49746238Y18224465D01*
X49751616Y18221459D01*
X49751618Y18221458D01*
X49787932Y18201163D01*
X49917513Y18128743D01*
X50104118Y18068111D01*
X50298946Y18044879D01*
X50305081Y18045351D01*
X50305083Y18045351D01*
X50488434Y18059459D01*
X50488438Y18059460D01*
X50494576Y18059932D01*
X50683556Y18112697D01*
X50747970Y18145235D01*
X50817792Y18158095D01*
X50883483Y18131166D01*
X50893876Y18121864D01*
X53080595Y15935145D01*
X53114621Y15872833D01*
X53117500Y15846050D01*
X53117500Y10540000D01*
X53097498Y10471879D01*
X53043842Y10425386D01*
X52991500Y10414000D01*
X50996187Y10414000D01*
X50983837Y10414607D01*
X50807260Y10431999D01*
X50783043Y10436815D01*
X50619190Y10486518D01*
X50596371Y10495971D01*
X50513998Y10540000D01*
X50445369Y10576683D01*
X50424842Y10590399D01*
X50292479Y10699026D01*
X50275020Y10716486D01*
X50169101Y10845549D01*
X50141347Y10910896D01*
X50140500Y10925482D01*
X50140500Y12623598D01*
X50141516Y12631315D01*
X50141516Y12643977D01*
X50145809Y12660000D01*
X50144328Y12665527D01*
X50136684Y12757772D01*
X50128103Y12861335D01*
X50128102Y12861340D01*
X50127672Y12866531D01*
X50076798Y13067428D01*
X49993551Y13257212D01*
X49880202Y13430706D01*
X49876677Y13434535D01*
X49876674Y13434539D01*
X49743375Y13579339D01*
X49739843Y13583176D01*
X49576303Y13710465D01*
X49394042Y13809100D01*
X49198032Y13876390D01*
X49192898Y13877247D01*
X49192893Y13877248D01*
X48998756Y13909643D01*
X48998754Y13909643D01*
X48993619Y13910500D01*
X48786381Y13910500D01*
X48781246Y13909643D01*
X48781244Y13909643D01*
X48587107Y13877248D01*
X48587102Y13877247D01*
X48581968Y13876390D01*
X48385958Y13809100D01*
X48203697Y13710465D01*
X48040157Y13583176D01*
X48036625Y13579339D01*
X47903326Y13434539D01*
X47903323Y13434535D01*
X47899798Y13430706D01*
X47786449Y13257212D01*
X47703202Y13067428D01*
X47652328Y12866531D01*
X47651898Y12861340D01*
X47651897Y12861335D01*
X47644678Y12774211D01*
X47635672Y12665527D01*
X47634191Y12660000D01*
X47638484Y12643977D01*
X47638484Y12631315D01*
X47639500Y12623598D01*
X47639500Y10925482D01*
X47619498Y10857361D01*
X47610899Y10845549D01*
X47504980Y10716486D01*
X47487521Y10699026D01*
X47355158Y10590399D01*
X47334631Y10576683D01*
X47266002Y10540000D01*
X47183629Y10495971D01*
X47160810Y10486518D01*
X46996957Y10436815D01*
X46972740Y10431999D01*
X46796163Y10414607D01*
X46783813Y10414000D01*
X45108500Y10414000D01*
X45040379Y10434002D01*
X44993886Y10487658D01*
X44982500Y10540000D01*
X44982500Y15846050D01*
X45002502Y15914171D01*
X45019405Y15935145D01*
X47204600Y18120340D01*
X47266912Y18154366D01*
X47337727Y18149301D01*
X47355158Y18141237D01*
X47377513Y18128743D01*
X47564118Y18068111D01*
X47758946Y18044879D01*
X47765081Y18045351D01*
X47765083Y18045351D01*
X47948434Y18059459D01*
X47948438Y18059460D01*
X47954576Y18059932D01*
X48143556Y18112697D01*
X48318689Y18201163D01*
X48339362Y18217314D01*
X48468453Y18318171D01*
X48473303Y18321960D01*
X48503084Y18356461D01*
X48597485Y18465827D01*
X48597485Y18465828D01*
X48601509Y18470489D01*
X48698425Y18641091D01*
X48760358Y18827268D01*
X48784949Y19021929D01*
X48785341Y19050000D01*
X48766194Y19245272D01*
X48764413Y19251171D01*
X48764412Y19251176D01*
X48711265Y19427207D01*
X48709484Y19433106D01*
X48617370Y19606347D01*
X48493361Y19758398D01*
X48342180Y19883465D01*
X48169585Y19976787D01*
X48119241Y19992371D01*
X48060081Y20031622D01*
X48031534Y20096627D01*
X48030500Y20112736D01*
X48030500Y20525492D01*
X48050502Y20593613D01*
X48104158Y20640106D01*
X48122612Y20646849D01*
X48143556Y20652697D01*
X48318689Y20741163D01*
X48348515Y20764465D01*
X48468453Y20858171D01*
X48473303Y20861960D01*
X48503084Y20896461D01*
X48597485Y21005827D01*
X48597485Y21005828D01*
X48601509Y21010489D01*
X48698425Y21181091D01*
X48760358Y21367268D01*
X48784949Y21561929D01*
X48785341Y21590000D01*
X48766194Y21785272D01*
X48764413Y21791171D01*
X48764412Y21791176D01*
X48711265Y21967207D01*
X48709484Y21973106D01*
X48617370Y22146347D01*
X48493361Y22298398D01*
X48342180Y22423465D01*
X48305504Y22443296D01*
X48251189Y22472664D01*
X48200780Y22522659D01*
X48185403Y22591971D01*
X48209939Y22658593D01*
X48266599Y22701373D01*
X48311118Y22709500D01*
X49788807Y22709500D01*
X49856928Y22689498D01*
G37*
%TD.AperFunction*%
%TA.AperFunction,Conductor*%
G36*
X9216928Y22689498D02*
G01*
X9263421Y22635842D01*
X9273525Y22565568D01*
X9244031Y22500988D01*
X9207182Y22471838D01*
X9134972Y22434088D01*
X9134968Y22434085D01*
X9129512Y22431233D01*
X9124712Y22427373D01*
X9124711Y22427373D01*
X9111361Y22416639D01*
X8976600Y22308289D01*
X8850480Y22157984D01*
X8847516Y22152592D01*
X8847513Y22152588D01*
X8830200Y22121095D01*
X8755956Y21986046D01*
X8696628Y21799022D01*
X8674757Y21604037D01*
X8691175Y21408517D01*
X8745258Y21219909D01*
X8748076Y21214426D01*
X8832123Y21050887D01*
X8832126Y21050883D01*
X8834944Y21045399D01*
X8956818Y20891631D01*
X9106238Y20764465D01*
X9111616Y20761459D01*
X9111618Y20761458D01*
X9147932Y20741163D01*
X9277513Y20668743D01*
X9342438Y20647647D01*
X9401042Y20607574D01*
X9428679Y20542178D01*
X9429500Y20527815D01*
X9429500Y20113511D01*
X9409498Y20045390D01*
X9355842Y19998897D01*
X9339087Y19992642D01*
X9303393Y19982136D01*
X9219818Y19938444D01*
X9134972Y19894088D01*
X9134968Y19894085D01*
X9129512Y19891233D01*
X9124712Y19887373D01*
X9124711Y19887373D01*
X9090326Y19859727D01*
X8976600Y19768289D01*
X8850480Y19617984D01*
X8847516Y19612592D01*
X8847513Y19612588D01*
X8830200Y19581095D01*
X8755956Y19446046D01*
X8696628Y19259022D01*
X8674757Y19064037D01*
X8691175Y18868517D01*
X8745258Y18679909D01*
X8748076Y18674426D01*
X8832123Y18510887D01*
X8832126Y18510883D01*
X8834944Y18505399D01*
X8956818Y18351631D01*
X9106238Y18224465D01*
X9111616Y18221459D01*
X9111618Y18221458D01*
X9147932Y18201163D01*
X9277513Y18128743D01*
X9464118Y18068111D01*
X9658946Y18044879D01*
X9665081Y18045351D01*
X9665083Y18045351D01*
X9848434Y18059459D01*
X9848438Y18059460D01*
X9854576Y18059932D01*
X10043556Y18112697D01*
X10107970Y18145235D01*
X10177792Y18158095D01*
X10243483Y18131166D01*
X10253876Y18121864D01*
X12440595Y15935145D01*
X12474621Y15872833D01*
X12477500Y15846050D01*
X12477500Y10540000D01*
X12457498Y10471879D01*
X12403842Y10425386D01*
X12351500Y10414000D01*
X10996187Y10414000D01*
X10983837Y10414607D01*
X10807260Y10431999D01*
X10783043Y10436815D01*
X10619190Y10486518D01*
X10596371Y10495971D01*
X10513998Y10540000D01*
X10445369Y10576683D01*
X10424842Y10590399D01*
X10292479Y10699026D01*
X10275020Y10716486D01*
X10169101Y10845549D01*
X10141347Y10910896D01*
X10140500Y10925482D01*
X10140500Y12623598D01*
X10141516Y12631315D01*
X10141516Y12643977D01*
X10145809Y12660000D01*
X10144328Y12665527D01*
X10136684Y12757772D01*
X10128103Y12861335D01*
X10128102Y12861340D01*
X10127672Y12866531D01*
X10076798Y13067428D01*
X9993551Y13257212D01*
X9880202Y13430706D01*
X9876677Y13434535D01*
X9876674Y13434539D01*
X9743375Y13579339D01*
X9739843Y13583176D01*
X9576303Y13710465D01*
X9394042Y13809100D01*
X9198032Y13876390D01*
X9192898Y13877247D01*
X9192893Y13877248D01*
X8998756Y13909643D01*
X8998754Y13909643D01*
X8993619Y13910500D01*
X8786381Y13910500D01*
X8781246Y13909643D01*
X8781244Y13909643D01*
X8587107Y13877248D01*
X8587102Y13877247D01*
X8581968Y13876390D01*
X8385958Y13809100D01*
X8203697Y13710465D01*
X8040157Y13583176D01*
X8036625Y13579339D01*
X7903326Y13434539D01*
X7903323Y13434535D01*
X7899798Y13430706D01*
X7786449Y13257212D01*
X7703202Y13067428D01*
X7652328Y12866531D01*
X7651898Y12861340D01*
X7651897Y12861335D01*
X7644678Y12774211D01*
X7635672Y12665527D01*
X7634191Y12660000D01*
X7638484Y12643977D01*
X7638484Y12631315D01*
X7639500Y12623598D01*
X7639500Y10925482D01*
X7619498Y10857361D01*
X7610899Y10845549D01*
X7504980Y10716486D01*
X7487521Y10699026D01*
X7355158Y10590399D01*
X7334631Y10576683D01*
X7266002Y10540000D01*
X7183629Y10495971D01*
X7160810Y10486518D01*
X6996957Y10436815D01*
X6972740Y10431999D01*
X6796163Y10414607D01*
X6783813Y10414000D01*
X5484500Y10414000D01*
X5416379Y10434002D01*
X5369886Y10487658D01*
X5358500Y10540000D01*
X5358500Y16862050D01*
X5378502Y16930171D01*
X5395405Y16951145D01*
X6564600Y18120340D01*
X6626912Y18154366D01*
X6697727Y18149301D01*
X6715158Y18141237D01*
X6737513Y18128743D01*
X6924118Y18068111D01*
X7118946Y18044879D01*
X7125081Y18045351D01*
X7125083Y18045351D01*
X7308434Y18059459D01*
X7308438Y18059460D01*
X7314576Y18059932D01*
X7503556Y18112697D01*
X7678689Y18201163D01*
X7699362Y18217314D01*
X7828453Y18318171D01*
X7833303Y18321960D01*
X7863084Y18356461D01*
X7957485Y18465827D01*
X7957485Y18465828D01*
X7961509Y18470489D01*
X8058425Y18641091D01*
X8120358Y18827268D01*
X8144949Y19021929D01*
X8145341Y19050000D01*
X8126194Y19245272D01*
X8124413Y19251171D01*
X8124412Y19251176D01*
X8071265Y19427207D01*
X8069484Y19433106D01*
X7977370Y19606347D01*
X7853361Y19758398D01*
X7702180Y19883465D01*
X7529585Y19976787D01*
X7479241Y19992371D01*
X7420081Y20031622D01*
X7391534Y20096627D01*
X7390500Y20112736D01*
X7390500Y20525492D01*
X7410502Y20593613D01*
X7464158Y20640106D01*
X7482612Y20646849D01*
X7503556Y20652697D01*
X7678689Y20741163D01*
X7708515Y20764465D01*
X7828453Y20858171D01*
X7833303Y20861960D01*
X7863084Y20896461D01*
X7957485Y21005827D01*
X7957485Y21005828D01*
X7961509Y21010489D01*
X8058425Y21181091D01*
X8120358Y21367268D01*
X8144949Y21561929D01*
X8145341Y21590000D01*
X8126194Y21785272D01*
X8124413Y21791171D01*
X8124412Y21791176D01*
X8071265Y21967207D01*
X8069484Y21973106D01*
X7977370Y22146347D01*
X7853361Y22298398D01*
X7702180Y22423465D01*
X7665504Y22443296D01*
X7611189Y22472664D01*
X7560780Y22522659D01*
X7545403Y22591971D01*
X7569939Y22658593D01*
X7626599Y22701373D01*
X7671118Y22709500D01*
X9148807Y22709500D01*
X9216928Y22689498D01*
G37*
%TD.AperFunction*%
%TA.AperFunction,Conductor*%
G36*
X70176928Y22689498D02*
G01*
X70223421Y22635842D01*
X70233525Y22565568D01*
X70204031Y22500988D01*
X70167182Y22471838D01*
X70094972Y22434088D01*
X70094968Y22434085D01*
X70089512Y22431233D01*
X70084712Y22427373D01*
X70084711Y22427373D01*
X70071361Y22416639D01*
X69936600Y22308289D01*
X69810480Y22157984D01*
X69807516Y22152592D01*
X69807513Y22152588D01*
X69790200Y22121095D01*
X69715956Y21986046D01*
X69656628Y21799022D01*
X69634757Y21604037D01*
X69651175Y21408517D01*
X69705258Y21219909D01*
X69708076Y21214426D01*
X69792123Y21050887D01*
X69792126Y21050883D01*
X69794944Y21045399D01*
X69916818Y20891631D01*
X70066238Y20764465D01*
X70071616Y20761459D01*
X70071618Y20761458D01*
X70107932Y20741163D01*
X70237513Y20668743D01*
X70302438Y20647647D01*
X70361042Y20607574D01*
X70388679Y20542178D01*
X70389500Y20527815D01*
X70389500Y20113511D01*
X70369498Y20045390D01*
X70315842Y19998897D01*
X70299087Y19992642D01*
X70263393Y19982136D01*
X70179818Y19938444D01*
X70094972Y19894088D01*
X70094968Y19894085D01*
X70089512Y19891233D01*
X70084712Y19887373D01*
X70084711Y19887373D01*
X70050326Y19859727D01*
X69936600Y19768289D01*
X69810480Y19617984D01*
X69807516Y19612592D01*
X69807513Y19612588D01*
X69790200Y19581095D01*
X69715956Y19446046D01*
X69656628Y19259022D01*
X69634757Y19064037D01*
X69651175Y18868517D01*
X69705258Y18679909D01*
X69708076Y18674426D01*
X69792123Y18510887D01*
X69792126Y18510883D01*
X69794944Y18505399D01*
X69916818Y18351631D01*
X70066238Y18224465D01*
X70071616Y18221459D01*
X70071618Y18221458D01*
X70107932Y18201163D01*
X70237513Y18128743D01*
X70424118Y18068111D01*
X70618946Y18044879D01*
X70625081Y18045351D01*
X70625083Y18045351D01*
X70808434Y18059459D01*
X70808438Y18059460D01*
X70814576Y18059932D01*
X71003556Y18112697D01*
X71067970Y18145235D01*
X71137792Y18158095D01*
X71203483Y18131166D01*
X71213876Y18121864D01*
X72384595Y16951145D01*
X72418621Y16888833D01*
X72421500Y16862050D01*
X72421500Y10540000D01*
X72401498Y10471879D01*
X72347842Y10425386D01*
X72295500Y10414000D01*
X70996187Y10414000D01*
X70983837Y10414607D01*
X70807260Y10431999D01*
X70783043Y10436815D01*
X70619190Y10486518D01*
X70596371Y10495971D01*
X70513998Y10540000D01*
X70445369Y10576683D01*
X70424842Y10590399D01*
X70292479Y10699026D01*
X70275020Y10716486D01*
X70169101Y10845549D01*
X70141347Y10910896D01*
X70140500Y10925482D01*
X70140500Y12623598D01*
X70141516Y12631315D01*
X70141516Y12643977D01*
X70145809Y12660000D01*
X70144328Y12665527D01*
X70136684Y12757772D01*
X70128103Y12861335D01*
X70128102Y12861340D01*
X70127672Y12866531D01*
X70076798Y13067428D01*
X69993551Y13257212D01*
X69880202Y13430706D01*
X69876677Y13434535D01*
X69876674Y13434539D01*
X69743375Y13579339D01*
X69739843Y13583176D01*
X69576303Y13710465D01*
X69394042Y13809100D01*
X69198032Y13876390D01*
X69192898Y13877247D01*
X69192893Y13877248D01*
X68998756Y13909643D01*
X68998754Y13909643D01*
X68993619Y13910500D01*
X68786381Y13910500D01*
X68781246Y13909643D01*
X68781244Y13909643D01*
X68587107Y13877248D01*
X68587102Y13877247D01*
X68581968Y13876390D01*
X68385958Y13809100D01*
X68203697Y13710465D01*
X68040157Y13583176D01*
X68036625Y13579339D01*
X67903326Y13434539D01*
X67903323Y13434535D01*
X67899798Y13430706D01*
X67786449Y13257212D01*
X67703202Y13067428D01*
X67652328Y12866531D01*
X67651898Y12861340D01*
X67651897Y12861335D01*
X67644678Y12774211D01*
X67635672Y12665527D01*
X67634191Y12660000D01*
X67638484Y12643977D01*
X67638484Y12631315D01*
X67639500Y12623598D01*
X67639500Y10925482D01*
X67619498Y10857361D01*
X67610899Y10845549D01*
X67504980Y10716486D01*
X67487521Y10699026D01*
X67355158Y10590399D01*
X67334631Y10576683D01*
X67266002Y10540000D01*
X67183629Y10495971D01*
X67160810Y10486518D01*
X66996957Y10436815D01*
X66972740Y10431999D01*
X66796163Y10414607D01*
X66783813Y10414000D01*
X65428500Y10414000D01*
X65360379Y10434002D01*
X65313886Y10487658D01*
X65302500Y10540000D01*
X65302500Y15846050D01*
X65322502Y15914171D01*
X65339405Y15935145D01*
X67524600Y18120340D01*
X67586912Y18154366D01*
X67657727Y18149301D01*
X67675158Y18141237D01*
X67697513Y18128743D01*
X67884118Y18068111D01*
X68078946Y18044879D01*
X68085081Y18045351D01*
X68085083Y18045351D01*
X68268434Y18059459D01*
X68268438Y18059460D01*
X68274576Y18059932D01*
X68463556Y18112697D01*
X68638689Y18201163D01*
X68659362Y18217314D01*
X68788453Y18318171D01*
X68793303Y18321960D01*
X68823084Y18356461D01*
X68917485Y18465827D01*
X68917485Y18465828D01*
X68921509Y18470489D01*
X69018425Y18641091D01*
X69080358Y18827268D01*
X69104949Y19021929D01*
X69105341Y19050000D01*
X69086194Y19245272D01*
X69084413Y19251171D01*
X69084412Y19251176D01*
X69031265Y19427207D01*
X69029484Y19433106D01*
X68937370Y19606347D01*
X68813361Y19758398D01*
X68662180Y19883465D01*
X68489585Y19976787D01*
X68439241Y19992371D01*
X68380081Y20031622D01*
X68351534Y20096627D01*
X68350500Y20112736D01*
X68350500Y20525492D01*
X68370502Y20593613D01*
X68424158Y20640106D01*
X68442612Y20646849D01*
X68463556Y20652697D01*
X68638689Y20741163D01*
X68668515Y20764465D01*
X68788453Y20858171D01*
X68793303Y20861960D01*
X68823084Y20896461D01*
X68917485Y21005827D01*
X68917485Y21005828D01*
X68921509Y21010489D01*
X69018425Y21181091D01*
X69080358Y21367268D01*
X69104949Y21561929D01*
X69105341Y21590000D01*
X69086194Y21785272D01*
X69084413Y21791171D01*
X69084412Y21791176D01*
X69031265Y21967207D01*
X69029484Y21973106D01*
X68937370Y22146347D01*
X68813361Y22298398D01*
X68662180Y22423465D01*
X68625504Y22443296D01*
X68571189Y22472664D01*
X68520780Y22522659D01*
X68505403Y22591971D01*
X68529939Y22658593D01*
X68586599Y22701373D01*
X68631118Y22709500D01*
X70108807Y22709500D01*
X70176928Y22689498D01*
G37*
%TD.AperFunction*%
%TD*%
%TA.AperFunction,Conductor*%
%TO.N,GND*%
G36*
X6796164Y9905393D02*
G01*
X6972741Y9888001D01*
X6996958Y9883185D01*
X7160810Y9833482D01*
X7183630Y9824029D01*
X7334632Y9743317D01*
X7355159Y9729601D01*
X7487522Y9620974D01*
X7504981Y9603514D01*
X7610900Y9474451D01*
X7638654Y9409104D01*
X7639501Y9394518D01*
X7639501Y7696402D01*
X7638485Y7688685D01*
X7638485Y7676023D01*
X7634192Y7660000D01*
X7635673Y7654473D01*
X7636952Y7639042D01*
X7650565Y7474762D01*
X7652329Y7453469D01*
X7703203Y7252572D01*
X7786450Y7062788D01*
X7789300Y7058426D01*
X7789302Y7058422D01*
X7896947Y6893658D01*
X7896950Y6893654D01*
X7899798Y6889295D01*
X7903323Y6885466D01*
X7903326Y6885462D01*
X7975299Y6807279D01*
X8040157Y6736825D01*
X8203698Y6609536D01*
X8385959Y6510901D01*
X8581968Y6443611D01*
X8587102Y6442754D01*
X8587107Y6442753D01*
X8781244Y6410358D01*
X8781246Y6410358D01*
X8786381Y6409501D01*
X8993619Y6409501D01*
X8998754Y6410358D01*
X8998756Y6410358D01*
X9192893Y6442753D01*
X9192898Y6442754D01*
X9198032Y6443611D01*
X9394041Y6510901D01*
X9576302Y6609536D01*
X9739843Y6736825D01*
X9804701Y6807279D01*
X9876674Y6885462D01*
X9876677Y6885466D01*
X9880202Y6889295D01*
X9883050Y6893654D01*
X9883053Y6893658D01*
X9990698Y7058422D01*
X9990700Y7058426D01*
X9993550Y7062788D01*
X10076797Y7252572D01*
X10127671Y7453469D01*
X10129436Y7474762D01*
X10142848Y7636630D01*
X10144327Y7654473D01*
X10145808Y7660000D01*
X10141515Y7676023D01*
X10141515Y7688685D01*
X10140499Y7696402D01*
X10140499Y9394518D01*
X10160501Y9462639D01*
X10169100Y9474451D01*
X10275019Y9603514D01*
X10292478Y9620974D01*
X10424841Y9729601D01*
X10445368Y9743317D01*
X10596370Y9824029D01*
X10619190Y9833482D01*
X10783042Y9883185D01*
X10807259Y9888001D01*
X10983836Y9905393D01*
X10996186Y9906000D01*
X12351500Y9906000D01*
X12419621Y9885998D01*
X12466114Y9832342D01*
X12477500Y9780000D01*
X12477500Y4473950D01*
X12457498Y4405829D01*
X12440595Y4384855D01*
X10254735Y2198995D01*
X10192423Y2164969D01*
X10121608Y2170034D01*
X10105713Y2177253D01*
X10075002Y2193858D01*
X10075003Y2193858D01*
X10069585Y2196787D01*
X9967124Y2228504D01*
X9888039Y2252985D01*
X9888036Y2252986D01*
X9882152Y2254807D01*
X9876027Y2255451D01*
X9876026Y2255451D01*
X9693147Y2274673D01*
X9693146Y2274673D01*
X9687019Y2275317D01*
X9564733Y2264188D01*
X9497759Y2258093D01*
X9497758Y2258093D01*
X9491618Y2257534D01*
X9485704Y2255793D01*
X9485702Y2255793D01*
X9400370Y2230678D01*
X9303393Y2202136D01*
X9297930Y2199280D01*
X9297928Y2199279D01*
X9134972Y2114088D01*
X9134968Y2114085D01*
X9129512Y2111233D01*
X9124712Y2107373D01*
X9124711Y2107373D01*
X9113441Y2098312D01*
X8976600Y1988289D01*
X8850480Y1837984D01*
X8847516Y1832592D01*
X8847513Y1832588D01*
X8810768Y1765748D01*
X8755956Y1666046D01*
X8754095Y1660179D01*
X8754094Y1660177D01*
X8726292Y1572534D01*
X8696628Y1479022D01*
X8674757Y1284037D01*
X8691175Y1088517D01*
X8745258Y899909D01*
X8748076Y894426D01*
X8832123Y730887D01*
X8832126Y730883D01*
X8834944Y725399D01*
X8956818Y571631D01*
X9106238Y444465D01*
X9111616Y441459D01*
X9111618Y441458D01*
X9209976Y386488D01*
X9259682Y335795D01*
X9274090Y266276D01*
X9248627Y200003D01*
X9191375Y158017D01*
X9148506Y150500D01*
X7671761Y150500D01*
X7603640Y170502D01*
X7557147Y224158D01*
X7547043Y294432D01*
X7576537Y359012D01*
X7614950Y388966D01*
X7673195Y418388D01*
X7678689Y421163D01*
X7708515Y444465D01*
X7828453Y538171D01*
X7833303Y541960D01*
X7863084Y576461D01*
X7957485Y685827D01*
X7957485Y685828D01*
X7961509Y690489D01*
X8058425Y861091D01*
X8120358Y1047268D01*
X8144949Y1241929D01*
X8145341Y1270000D01*
X8126194Y1465272D01*
X8124413Y1471171D01*
X8124412Y1471176D01*
X8071265Y1647207D01*
X8069484Y1653106D01*
X7977370Y1826347D01*
X7853361Y1978398D01*
X7702180Y2103465D01*
X7529585Y2196787D01*
X7427124Y2228504D01*
X7348039Y2252985D01*
X7348036Y2252986D01*
X7342152Y2254807D01*
X7336027Y2255451D01*
X7336026Y2255451D01*
X7153147Y2274673D01*
X7153146Y2274673D01*
X7147019Y2275317D01*
X7024733Y2264188D01*
X6957759Y2258093D01*
X6957758Y2258093D01*
X6951618Y2257534D01*
X6945704Y2255793D01*
X6945702Y2255793D01*
X6869848Y2233468D01*
X6763393Y2202136D01*
X6713244Y2175918D01*
X6643611Y2162084D01*
X6577550Y2188093D01*
X6565775Y2198485D01*
X5395405Y3368855D01*
X5361379Y3431167D01*
X5358500Y3457950D01*
X5358500Y9780000D01*
X5378502Y9848121D01*
X5432158Y9894614D01*
X5484500Y9906000D01*
X6783814Y9906000D01*
X6796164Y9905393D01*
G37*
%TD.AperFunction*%
%TA.AperFunction,Conductor*%
G36*
X66796164Y9905393D02*
G01*
X66972741Y9888001D01*
X66996958Y9883185D01*
X67160810Y9833482D01*
X67183630Y9824029D01*
X67334632Y9743317D01*
X67355159Y9729601D01*
X67487522Y9620974D01*
X67504981Y9603514D01*
X67610900Y9474451D01*
X67638654Y9409104D01*
X67639501Y9394518D01*
X67639501Y7696402D01*
X67638485Y7688685D01*
X67638485Y7676023D01*
X67634192Y7660000D01*
X67635673Y7654473D01*
X67636952Y7639042D01*
X67650565Y7474762D01*
X67652329Y7453469D01*
X67703203Y7252572D01*
X67786450Y7062788D01*
X67789300Y7058426D01*
X67789302Y7058422D01*
X67896947Y6893658D01*
X67896950Y6893654D01*
X67899798Y6889295D01*
X67903323Y6885466D01*
X67903326Y6885462D01*
X67975299Y6807279D01*
X68040157Y6736825D01*
X68203698Y6609536D01*
X68385959Y6510901D01*
X68581968Y6443611D01*
X68587102Y6442754D01*
X68587107Y6442753D01*
X68781244Y6410358D01*
X68781246Y6410358D01*
X68786381Y6409501D01*
X68993619Y6409501D01*
X68998754Y6410358D01*
X68998756Y6410358D01*
X69192893Y6442753D01*
X69192898Y6442754D01*
X69198032Y6443611D01*
X69394041Y6510901D01*
X69576302Y6609536D01*
X69739843Y6736825D01*
X69804701Y6807279D01*
X69876674Y6885462D01*
X69876677Y6885466D01*
X69880202Y6889295D01*
X69883050Y6893654D01*
X69883053Y6893658D01*
X69990698Y7058422D01*
X69990700Y7058426D01*
X69993550Y7062788D01*
X70076797Y7252572D01*
X70127671Y7453469D01*
X70129436Y7474762D01*
X70142848Y7636630D01*
X70144327Y7654473D01*
X70145808Y7660000D01*
X70141515Y7676023D01*
X70141515Y7688685D01*
X70140499Y7696402D01*
X70140499Y9394518D01*
X70160501Y9462639D01*
X70169100Y9474451D01*
X70275019Y9603514D01*
X70292478Y9620974D01*
X70424841Y9729601D01*
X70445368Y9743317D01*
X70596370Y9824029D01*
X70619190Y9833482D01*
X70783042Y9883185D01*
X70807259Y9888001D01*
X70983836Y9905393D01*
X70996186Y9906000D01*
X72295500Y9906000D01*
X72363621Y9885998D01*
X72410114Y9832342D01*
X72421500Y9780000D01*
X72421500Y3457950D01*
X72401498Y3389829D01*
X72384595Y3368855D01*
X71214735Y2198995D01*
X71152423Y2164969D01*
X71081608Y2170034D01*
X71065713Y2177253D01*
X71035002Y2193858D01*
X71035003Y2193858D01*
X71029585Y2196787D01*
X70927124Y2228504D01*
X70848039Y2252985D01*
X70848036Y2252986D01*
X70842152Y2254807D01*
X70836027Y2255451D01*
X70836026Y2255451D01*
X70653147Y2274673D01*
X70653146Y2274673D01*
X70647019Y2275317D01*
X70524733Y2264188D01*
X70457759Y2258093D01*
X70457758Y2258093D01*
X70451618Y2257534D01*
X70445704Y2255793D01*
X70445702Y2255793D01*
X70360370Y2230678D01*
X70263393Y2202136D01*
X70257930Y2199280D01*
X70257928Y2199279D01*
X70094972Y2114088D01*
X70094968Y2114085D01*
X70089512Y2111233D01*
X70084712Y2107373D01*
X70084711Y2107373D01*
X70073441Y2098312D01*
X69936600Y1988289D01*
X69810480Y1837984D01*
X69807516Y1832592D01*
X69807513Y1832588D01*
X69770768Y1765748D01*
X69715956Y1666046D01*
X69714095Y1660179D01*
X69714094Y1660177D01*
X69686292Y1572534D01*
X69656628Y1479022D01*
X69634757Y1284037D01*
X69651175Y1088517D01*
X69705258Y899909D01*
X69708076Y894426D01*
X69792123Y730887D01*
X69792126Y730883D01*
X69794944Y725399D01*
X69916818Y571631D01*
X70066238Y444465D01*
X70071616Y441459D01*
X70071618Y441458D01*
X70169976Y386488D01*
X70219682Y335795D01*
X70234090Y266276D01*
X70208627Y200003D01*
X70151375Y158017D01*
X70108506Y150500D01*
X68631761Y150500D01*
X68563640Y170502D01*
X68517147Y224158D01*
X68507043Y294432D01*
X68536537Y359012D01*
X68574950Y388966D01*
X68633195Y418388D01*
X68638689Y421163D01*
X68668515Y444465D01*
X68788453Y538171D01*
X68793303Y541960D01*
X68823084Y576461D01*
X68917485Y685827D01*
X68917485Y685828D01*
X68921509Y690489D01*
X69018425Y861091D01*
X69080358Y1047268D01*
X69104949Y1241929D01*
X69105341Y1270000D01*
X69086194Y1465272D01*
X69084413Y1471171D01*
X69084412Y1471176D01*
X69031265Y1647207D01*
X69029484Y1653106D01*
X68937370Y1826347D01*
X68813361Y1978398D01*
X68662180Y2103465D01*
X68489585Y2196787D01*
X68387124Y2228504D01*
X68308039Y2252985D01*
X68308036Y2252986D01*
X68302152Y2254807D01*
X68296027Y2255451D01*
X68296026Y2255451D01*
X68113147Y2274673D01*
X68113146Y2274673D01*
X68107019Y2275317D01*
X67984733Y2264188D01*
X67917759Y2258093D01*
X67917758Y2258093D01*
X67911618Y2257534D01*
X67905704Y2255793D01*
X67905702Y2255793D01*
X67829848Y2233468D01*
X67723393Y2202136D01*
X67673244Y2175918D01*
X67603611Y2162084D01*
X67537550Y2188093D01*
X67525775Y2198485D01*
X65339405Y4384855D01*
X65305379Y4447167D01*
X65302500Y4473950D01*
X65302500Y9780000D01*
X65322502Y9848121D01*
X65376158Y9894614D01*
X65428500Y9906000D01*
X66783814Y9906000D01*
X66796164Y9905393D01*
G37*
%TD.AperFunction*%
%TA.AperFunction,Conductor*%
G36*
X56796164Y9905393D02*
G01*
X56972741Y9888001D01*
X56996958Y9883185D01*
X57160810Y9833482D01*
X57183630Y9824029D01*
X57334632Y9743317D01*
X57355159Y9729601D01*
X57487522Y9620974D01*
X57504981Y9603514D01*
X57610900Y9474451D01*
X57638654Y9409104D01*
X57639501Y9394518D01*
X57639501Y7696402D01*
X57638485Y7688685D01*
X57638485Y7676023D01*
X57634192Y7660000D01*
X57635673Y7654473D01*
X57636952Y7639042D01*
X57650565Y7474762D01*
X57652329Y7453469D01*
X57703203Y7252572D01*
X57786450Y7062788D01*
X57789300Y7058426D01*
X57789302Y7058422D01*
X57896947Y6893658D01*
X57896950Y6893654D01*
X57899798Y6889295D01*
X57903323Y6885466D01*
X57903326Y6885462D01*
X57975299Y6807279D01*
X58040157Y6736825D01*
X58203698Y6609536D01*
X58385959Y6510901D01*
X58581968Y6443611D01*
X58587102Y6442754D01*
X58587107Y6442753D01*
X58781244Y6410358D01*
X58781246Y6410358D01*
X58786381Y6409501D01*
X58993619Y6409501D01*
X58998754Y6410358D01*
X58998756Y6410358D01*
X59192893Y6442753D01*
X59192898Y6442754D01*
X59198032Y6443611D01*
X59394041Y6510901D01*
X59576302Y6609536D01*
X59739843Y6736825D01*
X59804701Y6807279D01*
X59876674Y6885462D01*
X59876677Y6885466D01*
X59880202Y6889295D01*
X59883050Y6893654D01*
X59883053Y6893658D01*
X59990698Y7058422D01*
X59990700Y7058426D01*
X59993550Y7062788D01*
X60076797Y7252572D01*
X60127671Y7453469D01*
X60129436Y7474762D01*
X60142848Y7636630D01*
X60144327Y7654473D01*
X60145808Y7660000D01*
X60141515Y7676023D01*
X60141515Y7688685D01*
X60140499Y7696402D01*
X60140499Y9394518D01*
X60160501Y9462639D01*
X60169100Y9474451D01*
X60275019Y9603514D01*
X60292478Y9620974D01*
X60424841Y9729601D01*
X60445368Y9743317D01*
X60596370Y9824029D01*
X60619190Y9833482D01*
X60783042Y9883185D01*
X60807259Y9888001D01*
X60983836Y9905393D01*
X60996186Y9906000D01*
X63151500Y9906000D01*
X63219621Y9885998D01*
X63266114Y9832342D01*
X63277500Y9780000D01*
X63277500Y4473950D01*
X63257498Y4405829D01*
X63240595Y4384855D01*
X61054735Y2198995D01*
X60992423Y2164969D01*
X60921608Y2170034D01*
X60905713Y2177253D01*
X60875002Y2193858D01*
X60875003Y2193858D01*
X60869585Y2196787D01*
X60767124Y2228504D01*
X60688039Y2252985D01*
X60688036Y2252986D01*
X60682152Y2254807D01*
X60676027Y2255451D01*
X60676026Y2255451D01*
X60493147Y2274673D01*
X60493146Y2274673D01*
X60487019Y2275317D01*
X60364733Y2264188D01*
X60297759Y2258093D01*
X60297758Y2258093D01*
X60291618Y2257534D01*
X60285704Y2255793D01*
X60285702Y2255793D01*
X60200370Y2230678D01*
X60103393Y2202136D01*
X60097930Y2199280D01*
X60097928Y2199279D01*
X59934972Y2114088D01*
X59934968Y2114085D01*
X59929512Y2111233D01*
X59924712Y2107373D01*
X59924711Y2107373D01*
X59913441Y2098312D01*
X59776600Y1988289D01*
X59650480Y1837984D01*
X59647516Y1832592D01*
X59647513Y1832588D01*
X59610768Y1765748D01*
X59555956Y1666046D01*
X59554095Y1660179D01*
X59554094Y1660177D01*
X59526292Y1572534D01*
X59496628Y1479022D01*
X59474757Y1284037D01*
X59491175Y1088517D01*
X59545258Y899909D01*
X59548076Y894426D01*
X59632123Y730887D01*
X59632126Y730883D01*
X59634944Y725399D01*
X59756818Y571631D01*
X59906238Y444465D01*
X59911616Y441459D01*
X59911618Y441458D01*
X60009976Y386488D01*
X60059682Y335795D01*
X60074090Y266276D01*
X60048627Y200003D01*
X59991375Y158017D01*
X59948506Y150500D01*
X58471761Y150500D01*
X58403640Y170502D01*
X58357147Y224158D01*
X58347043Y294432D01*
X58376537Y359012D01*
X58414950Y388966D01*
X58473195Y418388D01*
X58478689Y421163D01*
X58508515Y444465D01*
X58628453Y538171D01*
X58633303Y541960D01*
X58663084Y576461D01*
X58757485Y685827D01*
X58757485Y685828D01*
X58761509Y690489D01*
X58858425Y861091D01*
X58920358Y1047268D01*
X58944949Y1241929D01*
X58945341Y1270000D01*
X58926194Y1465272D01*
X58924413Y1471171D01*
X58924412Y1471176D01*
X58871265Y1647207D01*
X58869484Y1653106D01*
X58777370Y1826347D01*
X58653361Y1978398D01*
X58502180Y2103465D01*
X58329585Y2196787D01*
X58227124Y2228504D01*
X58148039Y2252985D01*
X58148036Y2252986D01*
X58142152Y2254807D01*
X58136027Y2255451D01*
X58136026Y2255451D01*
X57953147Y2274673D01*
X57953146Y2274673D01*
X57947019Y2275317D01*
X57824733Y2264188D01*
X57757759Y2258093D01*
X57757758Y2258093D01*
X57751618Y2257534D01*
X57745704Y2255793D01*
X57745702Y2255793D01*
X57669848Y2233468D01*
X57563393Y2202136D01*
X57513244Y2175918D01*
X57443611Y2162084D01*
X57377550Y2188093D01*
X57365775Y2198485D01*
X55179405Y4384855D01*
X55145379Y4447167D01*
X55142500Y4473950D01*
X55142500Y9780000D01*
X55162502Y9848121D01*
X55216158Y9894614D01*
X55268500Y9906000D01*
X56783814Y9906000D01*
X56796164Y9905393D01*
G37*
%TD.AperFunction*%
%TA.AperFunction,Conductor*%
G36*
X16796164Y9905393D02*
G01*
X16972741Y9888001D01*
X16996958Y9883185D01*
X17160810Y9833482D01*
X17183630Y9824029D01*
X17334632Y9743317D01*
X17355159Y9729601D01*
X17487522Y9620974D01*
X17504981Y9603514D01*
X17610900Y9474451D01*
X17638654Y9409104D01*
X17639501Y9394518D01*
X17639501Y7696402D01*
X17638485Y7688685D01*
X17638485Y7676023D01*
X17634192Y7660000D01*
X17635673Y7654473D01*
X17636952Y7639042D01*
X17650565Y7474762D01*
X17652329Y7453469D01*
X17703203Y7252572D01*
X17786450Y7062788D01*
X17789300Y7058426D01*
X17789302Y7058422D01*
X17896947Y6893658D01*
X17896950Y6893654D01*
X17899798Y6889295D01*
X17903323Y6885466D01*
X17903326Y6885462D01*
X17975299Y6807279D01*
X18040157Y6736825D01*
X18203698Y6609536D01*
X18385959Y6510901D01*
X18581968Y6443611D01*
X18587102Y6442754D01*
X18587107Y6442753D01*
X18781244Y6410358D01*
X18781246Y6410358D01*
X18786381Y6409501D01*
X18993619Y6409501D01*
X18998754Y6410358D01*
X18998756Y6410358D01*
X19192893Y6442753D01*
X19192898Y6442754D01*
X19198032Y6443611D01*
X19394041Y6510901D01*
X19576302Y6609536D01*
X19739843Y6736825D01*
X19804701Y6807279D01*
X19876674Y6885462D01*
X19876677Y6885466D01*
X19880202Y6889295D01*
X19883050Y6893654D01*
X19883053Y6893658D01*
X19990698Y7058422D01*
X19990700Y7058426D01*
X19993550Y7062788D01*
X20076797Y7252572D01*
X20127671Y7453469D01*
X20129436Y7474762D01*
X20142848Y7636630D01*
X20144327Y7654473D01*
X20145808Y7660000D01*
X20141515Y7676023D01*
X20141515Y7688685D01*
X20140499Y7696402D01*
X20140499Y9394518D01*
X20160501Y9462639D01*
X20169100Y9474451D01*
X20275019Y9603514D01*
X20292478Y9620974D01*
X20424841Y9729601D01*
X20445368Y9743317D01*
X20596370Y9824029D01*
X20619190Y9833482D01*
X20783042Y9883185D01*
X20807259Y9888001D01*
X20983836Y9905393D01*
X20996186Y9906000D01*
X22511500Y9906000D01*
X22579621Y9885998D01*
X22626114Y9832342D01*
X22637500Y9780000D01*
X22637500Y4473950D01*
X22617498Y4405829D01*
X22600595Y4384855D01*
X20414735Y2198995D01*
X20352423Y2164969D01*
X20281608Y2170034D01*
X20265713Y2177253D01*
X20235002Y2193858D01*
X20235003Y2193858D01*
X20229585Y2196787D01*
X20127124Y2228504D01*
X20048039Y2252985D01*
X20048036Y2252986D01*
X20042152Y2254807D01*
X20036027Y2255451D01*
X20036026Y2255451D01*
X19853147Y2274673D01*
X19853146Y2274673D01*
X19847019Y2275317D01*
X19724733Y2264188D01*
X19657759Y2258093D01*
X19657758Y2258093D01*
X19651618Y2257534D01*
X19645704Y2255793D01*
X19645702Y2255793D01*
X19560370Y2230678D01*
X19463393Y2202136D01*
X19457930Y2199280D01*
X19457928Y2199279D01*
X19294972Y2114088D01*
X19294968Y2114085D01*
X19289512Y2111233D01*
X19284712Y2107373D01*
X19284711Y2107373D01*
X19273441Y2098312D01*
X19136600Y1988289D01*
X19010480Y1837984D01*
X19007516Y1832592D01*
X19007513Y1832588D01*
X18970768Y1765748D01*
X18915956Y1666046D01*
X18914095Y1660179D01*
X18914094Y1660177D01*
X18886292Y1572534D01*
X18856628Y1479022D01*
X18834757Y1284037D01*
X18851175Y1088517D01*
X18905258Y899909D01*
X18908076Y894426D01*
X18992123Y730887D01*
X18992126Y730883D01*
X18994944Y725399D01*
X19116818Y571631D01*
X19266238Y444465D01*
X19271616Y441459D01*
X19271618Y441458D01*
X19369976Y386488D01*
X19419682Y335795D01*
X19434090Y266276D01*
X19408627Y200003D01*
X19351375Y158017D01*
X19308506Y150500D01*
X17831761Y150500D01*
X17763640Y170502D01*
X17717147Y224158D01*
X17707043Y294432D01*
X17736537Y359012D01*
X17774950Y388966D01*
X17833195Y418388D01*
X17838689Y421163D01*
X17868515Y444465D01*
X17988453Y538171D01*
X17993303Y541960D01*
X18023084Y576461D01*
X18117485Y685827D01*
X18117485Y685828D01*
X18121509Y690489D01*
X18218425Y861091D01*
X18280358Y1047268D01*
X18304949Y1241929D01*
X18305341Y1270000D01*
X18286194Y1465272D01*
X18284413Y1471171D01*
X18284412Y1471176D01*
X18231265Y1647207D01*
X18229484Y1653106D01*
X18137370Y1826347D01*
X18013361Y1978398D01*
X17862180Y2103465D01*
X17689585Y2196787D01*
X17587124Y2228504D01*
X17508039Y2252985D01*
X17508036Y2252986D01*
X17502152Y2254807D01*
X17496027Y2255451D01*
X17496026Y2255451D01*
X17313147Y2274673D01*
X17313146Y2274673D01*
X17307019Y2275317D01*
X17184733Y2264188D01*
X17117759Y2258093D01*
X17117758Y2258093D01*
X17111618Y2257534D01*
X17105704Y2255793D01*
X17105702Y2255793D01*
X17029848Y2233468D01*
X16923393Y2202136D01*
X16873244Y2175918D01*
X16803611Y2162084D01*
X16737550Y2188093D01*
X16725775Y2198485D01*
X14539405Y4384855D01*
X14505379Y4447167D01*
X14502500Y4473950D01*
X14502500Y9780000D01*
X14522502Y9848121D01*
X14576158Y9894614D01*
X14628500Y9906000D01*
X16783814Y9906000D01*
X16796164Y9905393D01*
G37*
%TD.AperFunction*%
%TA.AperFunction,Conductor*%
G36*
X46796164Y9905393D02*
G01*
X46972741Y9888001D01*
X46996958Y9883185D01*
X47160810Y9833482D01*
X47183630Y9824029D01*
X47334632Y9743317D01*
X47355159Y9729601D01*
X47487522Y9620974D01*
X47504981Y9603514D01*
X47610900Y9474451D01*
X47638654Y9409104D01*
X47639501Y9394518D01*
X47639501Y7696402D01*
X47638485Y7688685D01*
X47638485Y7676023D01*
X47634192Y7660000D01*
X47635673Y7654473D01*
X47636952Y7639042D01*
X47650565Y7474762D01*
X47652329Y7453469D01*
X47703203Y7252572D01*
X47786450Y7062788D01*
X47789300Y7058426D01*
X47789302Y7058422D01*
X47896947Y6893658D01*
X47896950Y6893654D01*
X47899798Y6889295D01*
X47903323Y6885466D01*
X47903326Y6885462D01*
X47975299Y6807279D01*
X48040157Y6736825D01*
X48203698Y6609536D01*
X48385959Y6510901D01*
X48581968Y6443611D01*
X48587102Y6442754D01*
X48587107Y6442753D01*
X48781244Y6410358D01*
X48781246Y6410358D01*
X48786381Y6409501D01*
X48993619Y6409501D01*
X48998754Y6410358D01*
X48998756Y6410358D01*
X49192893Y6442753D01*
X49192898Y6442754D01*
X49198032Y6443611D01*
X49394041Y6510901D01*
X49576302Y6609536D01*
X49739843Y6736825D01*
X49804701Y6807279D01*
X49876674Y6885462D01*
X49876677Y6885466D01*
X49880202Y6889295D01*
X49883050Y6893654D01*
X49883053Y6893658D01*
X49990698Y7058422D01*
X49990700Y7058426D01*
X49993550Y7062788D01*
X50076797Y7252572D01*
X50127671Y7453469D01*
X50129436Y7474762D01*
X50142848Y7636630D01*
X50144327Y7654473D01*
X50145808Y7660000D01*
X50141515Y7676023D01*
X50141515Y7688685D01*
X50140499Y7696402D01*
X50140499Y9394518D01*
X50160501Y9462639D01*
X50169100Y9474451D01*
X50275019Y9603514D01*
X50292478Y9620974D01*
X50424841Y9729601D01*
X50445368Y9743317D01*
X50596370Y9824029D01*
X50619190Y9833482D01*
X50783042Y9883185D01*
X50807259Y9888001D01*
X50983836Y9905393D01*
X50996186Y9906000D01*
X52991500Y9906000D01*
X53059621Y9885998D01*
X53106114Y9832342D01*
X53117500Y9780000D01*
X53117500Y4473950D01*
X53097498Y4405829D01*
X53080595Y4384855D01*
X50894735Y2198995D01*
X50832423Y2164969D01*
X50761608Y2170034D01*
X50745713Y2177253D01*
X50715002Y2193858D01*
X50715003Y2193858D01*
X50709585Y2196787D01*
X50607124Y2228504D01*
X50528039Y2252985D01*
X50528036Y2252986D01*
X50522152Y2254807D01*
X50516027Y2255451D01*
X50516026Y2255451D01*
X50333147Y2274673D01*
X50333146Y2274673D01*
X50327019Y2275317D01*
X50204733Y2264188D01*
X50137759Y2258093D01*
X50137758Y2258093D01*
X50131618Y2257534D01*
X50125704Y2255793D01*
X50125702Y2255793D01*
X50040370Y2230678D01*
X49943393Y2202136D01*
X49937930Y2199280D01*
X49937928Y2199279D01*
X49774972Y2114088D01*
X49774968Y2114085D01*
X49769512Y2111233D01*
X49764712Y2107373D01*
X49764711Y2107373D01*
X49753441Y2098312D01*
X49616600Y1988289D01*
X49490480Y1837984D01*
X49487516Y1832592D01*
X49487513Y1832588D01*
X49450768Y1765748D01*
X49395956Y1666046D01*
X49394095Y1660179D01*
X49394094Y1660177D01*
X49366292Y1572534D01*
X49336628Y1479022D01*
X49314757Y1284037D01*
X49331175Y1088517D01*
X49385258Y899909D01*
X49388076Y894426D01*
X49472123Y730887D01*
X49472126Y730883D01*
X49474944Y725399D01*
X49596818Y571631D01*
X49746238Y444465D01*
X49751616Y441459D01*
X49751618Y441458D01*
X49849976Y386488D01*
X49899682Y335795D01*
X49914090Y266276D01*
X49888627Y200003D01*
X49831375Y158017D01*
X49788506Y150500D01*
X48311761Y150500D01*
X48243640Y170502D01*
X48197147Y224158D01*
X48187043Y294432D01*
X48216537Y359012D01*
X48254950Y388966D01*
X48313195Y418388D01*
X48318689Y421163D01*
X48348515Y444465D01*
X48468453Y538171D01*
X48473303Y541960D01*
X48503084Y576461D01*
X48597485Y685827D01*
X48597485Y685828D01*
X48601509Y690489D01*
X48698425Y861091D01*
X48760358Y1047268D01*
X48784949Y1241929D01*
X48785341Y1270000D01*
X48766194Y1465272D01*
X48764413Y1471171D01*
X48764412Y1471176D01*
X48711265Y1647207D01*
X48709484Y1653106D01*
X48617370Y1826347D01*
X48493361Y1978398D01*
X48342180Y2103465D01*
X48169585Y2196787D01*
X48067124Y2228504D01*
X47988039Y2252985D01*
X47988036Y2252986D01*
X47982152Y2254807D01*
X47976027Y2255451D01*
X47976026Y2255451D01*
X47793147Y2274673D01*
X47793146Y2274673D01*
X47787019Y2275317D01*
X47664733Y2264188D01*
X47597759Y2258093D01*
X47597758Y2258093D01*
X47591618Y2257534D01*
X47585704Y2255793D01*
X47585702Y2255793D01*
X47509848Y2233468D01*
X47403393Y2202136D01*
X47353244Y2175918D01*
X47283611Y2162084D01*
X47217550Y2188093D01*
X47205775Y2198485D01*
X45019405Y4384855D01*
X44985379Y4447167D01*
X44982500Y4473950D01*
X44982500Y9780000D01*
X45002502Y9848121D01*
X45056158Y9894614D01*
X45108500Y9906000D01*
X46783814Y9906000D01*
X46796164Y9905393D01*
G37*
%TD.AperFunction*%
%TA.AperFunction,Conductor*%
G36*
X26796164Y9905393D02*
G01*
X26972741Y9888001D01*
X26996958Y9883185D01*
X27160810Y9833482D01*
X27183630Y9824029D01*
X27334632Y9743317D01*
X27355159Y9729601D01*
X27487522Y9620974D01*
X27504981Y9603514D01*
X27610900Y9474451D01*
X27638654Y9409104D01*
X27639501Y9394518D01*
X27639501Y7696402D01*
X27638485Y7688685D01*
X27638485Y7676023D01*
X27634192Y7660000D01*
X27635673Y7654473D01*
X27636952Y7639042D01*
X27650565Y7474762D01*
X27652329Y7453469D01*
X27703203Y7252572D01*
X27786450Y7062788D01*
X27789300Y7058426D01*
X27789302Y7058422D01*
X27896947Y6893658D01*
X27896950Y6893654D01*
X27899798Y6889295D01*
X27903323Y6885466D01*
X27903326Y6885462D01*
X27975299Y6807279D01*
X28040157Y6736825D01*
X28203698Y6609536D01*
X28385959Y6510901D01*
X28581968Y6443611D01*
X28587102Y6442754D01*
X28587107Y6442753D01*
X28781244Y6410358D01*
X28781246Y6410358D01*
X28786381Y6409501D01*
X28993619Y6409501D01*
X28998754Y6410358D01*
X28998756Y6410358D01*
X29192893Y6442753D01*
X29192898Y6442754D01*
X29198032Y6443611D01*
X29394041Y6510901D01*
X29576302Y6609536D01*
X29739843Y6736825D01*
X29804701Y6807279D01*
X29876674Y6885462D01*
X29876677Y6885466D01*
X29880202Y6889295D01*
X29883050Y6893654D01*
X29883053Y6893658D01*
X29990698Y7058422D01*
X29990700Y7058426D01*
X29993550Y7062788D01*
X30076797Y7252572D01*
X30127671Y7453469D01*
X30129436Y7474762D01*
X30142848Y7636630D01*
X30144327Y7654473D01*
X30145808Y7660000D01*
X30141515Y7676023D01*
X30141515Y7688685D01*
X30140499Y7696402D01*
X30140499Y9394518D01*
X30160501Y9462639D01*
X30169100Y9474451D01*
X30275019Y9603514D01*
X30292478Y9620974D01*
X30424841Y9729601D01*
X30445368Y9743317D01*
X30596370Y9824029D01*
X30619190Y9833482D01*
X30783042Y9883185D01*
X30807259Y9888001D01*
X30983836Y9905393D01*
X30996186Y9906000D01*
X32671500Y9906000D01*
X32739621Y9885998D01*
X32786114Y9832342D01*
X32797500Y9780000D01*
X32797500Y4473950D01*
X32777498Y4405829D01*
X32760595Y4384855D01*
X30574735Y2198995D01*
X30512423Y2164969D01*
X30441608Y2170034D01*
X30425713Y2177253D01*
X30395002Y2193858D01*
X30395003Y2193858D01*
X30389585Y2196787D01*
X30287124Y2228504D01*
X30208039Y2252985D01*
X30208036Y2252986D01*
X30202152Y2254807D01*
X30196027Y2255451D01*
X30196026Y2255451D01*
X30013147Y2274673D01*
X30013146Y2274673D01*
X30007019Y2275317D01*
X29884733Y2264188D01*
X29817759Y2258093D01*
X29817758Y2258093D01*
X29811618Y2257534D01*
X29805704Y2255793D01*
X29805702Y2255793D01*
X29720370Y2230678D01*
X29623393Y2202136D01*
X29617930Y2199280D01*
X29617928Y2199279D01*
X29454972Y2114088D01*
X29454968Y2114085D01*
X29449512Y2111233D01*
X29444712Y2107373D01*
X29444711Y2107373D01*
X29433441Y2098312D01*
X29296600Y1988289D01*
X29170480Y1837984D01*
X29167516Y1832592D01*
X29167513Y1832588D01*
X29130768Y1765748D01*
X29075956Y1666046D01*
X29074095Y1660179D01*
X29074094Y1660177D01*
X29046292Y1572534D01*
X29016628Y1479022D01*
X28994757Y1284037D01*
X29011175Y1088517D01*
X29065258Y899909D01*
X29068076Y894426D01*
X29152123Y730887D01*
X29152126Y730883D01*
X29154944Y725399D01*
X29276818Y571631D01*
X29426238Y444465D01*
X29431616Y441459D01*
X29431618Y441458D01*
X29529976Y386488D01*
X29579682Y335795D01*
X29594090Y266276D01*
X29568627Y200003D01*
X29511375Y158017D01*
X29468506Y150500D01*
X27991761Y150500D01*
X27923640Y170502D01*
X27877147Y224158D01*
X27867043Y294432D01*
X27896537Y359012D01*
X27934950Y388966D01*
X27993195Y418388D01*
X27998689Y421163D01*
X28028515Y444465D01*
X28148453Y538171D01*
X28153303Y541960D01*
X28183084Y576461D01*
X28277485Y685827D01*
X28277485Y685828D01*
X28281509Y690489D01*
X28378425Y861091D01*
X28440358Y1047268D01*
X28464949Y1241929D01*
X28465341Y1270000D01*
X28446194Y1465272D01*
X28444413Y1471171D01*
X28444412Y1471176D01*
X28391265Y1647207D01*
X28389484Y1653106D01*
X28297370Y1826347D01*
X28173361Y1978398D01*
X28022180Y2103465D01*
X27849585Y2196787D01*
X27747124Y2228504D01*
X27668039Y2252985D01*
X27668036Y2252986D01*
X27662152Y2254807D01*
X27656027Y2255451D01*
X27656026Y2255451D01*
X27473147Y2274673D01*
X27473146Y2274673D01*
X27467019Y2275317D01*
X27344733Y2264188D01*
X27277759Y2258093D01*
X27277758Y2258093D01*
X27271618Y2257534D01*
X27265704Y2255793D01*
X27265702Y2255793D01*
X27189848Y2233468D01*
X27083393Y2202136D01*
X27033244Y2175918D01*
X26963611Y2162084D01*
X26897550Y2188093D01*
X26885775Y2198485D01*
X24699405Y4384855D01*
X24665379Y4447167D01*
X24662500Y4473950D01*
X24662500Y9780000D01*
X24682502Y9848121D01*
X24736158Y9894614D01*
X24788500Y9906000D01*
X26783814Y9906000D01*
X26796164Y9905393D01*
G37*
%TD.AperFunction*%
%TA.AperFunction,Conductor*%
G36*
X36796164Y9905393D02*
G01*
X36972741Y9888001D01*
X36996958Y9883185D01*
X37160810Y9833482D01*
X37183630Y9824029D01*
X37334632Y9743317D01*
X37355159Y9729601D01*
X37487522Y9620974D01*
X37504981Y9603514D01*
X37610900Y9474451D01*
X37638654Y9409104D01*
X37639501Y9394518D01*
X37639501Y7696402D01*
X37638485Y7688685D01*
X37638485Y7676023D01*
X37634192Y7660000D01*
X37635673Y7654473D01*
X37636952Y7639042D01*
X37650565Y7474762D01*
X37652329Y7453469D01*
X37703203Y7252572D01*
X37786450Y7062788D01*
X37789300Y7058426D01*
X37789302Y7058422D01*
X37896947Y6893658D01*
X37896950Y6893654D01*
X37899798Y6889295D01*
X37903323Y6885466D01*
X37903326Y6885462D01*
X37975299Y6807279D01*
X38040157Y6736825D01*
X38203698Y6609536D01*
X38385959Y6510901D01*
X38581968Y6443611D01*
X38587102Y6442754D01*
X38587107Y6442753D01*
X38781244Y6410358D01*
X38781246Y6410358D01*
X38786381Y6409501D01*
X38993619Y6409501D01*
X38998754Y6410358D01*
X38998756Y6410358D01*
X39192893Y6442753D01*
X39192898Y6442754D01*
X39198032Y6443611D01*
X39394041Y6510901D01*
X39576302Y6609536D01*
X39739843Y6736825D01*
X39804701Y6807279D01*
X39876674Y6885462D01*
X39876677Y6885466D01*
X39880202Y6889295D01*
X39883050Y6893654D01*
X39883053Y6893658D01*
X39990698Y7058422D01*
X39990700Y7058426D01*
X39993550Y7062788D01*
X40076797Y7252572D01*
X40127671Y7453469D01*
X40129436Y7474762D01*
X40142848Y7636630D01*
X40144327Y7654473D01*
X40145808Y7660000D01*
X40141515Y7676023D01*
X40141515Y7688685D01*
X40140499Y7696402D01*
X40140499Y9394518D01*
X40160501Y9462639D01*
X40169100Y9474451D01*
X40275019Y9603514D01*
X40292478Y9620974D01*
X40424841Y9729601D01*
X40445368Y9743317D01*
X40596370Y9824029D01*
X40619190Y9833482D01*
X40783042Y9883185D01*
X40807259Y9888001D01*
X40983836Y9905393D01*
X40996186Y9906000D01*
X42831500Y9906000D01*
X42899621Y9885998D01*
X42946114Y9832342D01*
X42957500Y9780000D01*
X42957500Y4473950D01*
X42937498Y4405829D01*
X42920595Y4384855D01*
X40734735Y2198995D01*
X40672423Y2164969D01*
X40601608Y2170034D01*
X40585713Y2177253D01*
X40555002Y2193858D01*
X40555003Y2193858D01*
X40549585Y2196787D01*
X40447124Y2228504D01*
X40368039Y2252985D01*
X40368036Y2252986D01*
X40362152Y2254807D01*
X40356027Y2255451D01*
X40356026Y2255451D01*
X40173147Y2274673D01*
X40173146Y2274673D01*
X40167019Y2275317D01*
X40044733Y2264188D01*
X39977759Y2258093D01*
X39977758Y2258093D01*
X39971618Y2257534D01*
X39965704Y2255793D01*
X39965702Y2255793D01*
X39880370Y2230678D01*
X39783393Y2202136D01*
X39777930Y2199280D01*
X39777928Y2199279D01*
X39614972Y2114088D01*
X39614968Y2114085D01*
X39609512Y2111233D01*
X39604712Y2107373D01*
X39604711Y2107373D01*
X39593441Y2098312D01*
X39456600Y1988289D01*
X39330480Y1837984D01*
X39327516Y1832592D01*
X39327513Y1832588D01*
X39290768Y1765748D01*
X39235956Y1666046D01*
X39234095Y1660179D01*
X39234094Y1660177D01*
X39206292Y1572534D01*
X39176628Y1479022D01*
X39154757Y1284037D01*
X39171175Y1088517D01*
X39225258Y899909D01*
X39228076Y894426D01*
X39312123Y730887D01*
X39312126Y730883D01*
X39314944Y725399D01*
X39436818Y571631D01*
X39586238Y444465D01*
X39591616Y441459D01*
X39591618Y441458D01*
X39689976Y386488D01*
X39739682Y335795D01*
X39754090Y266276D01*
X39728627Y200003D01*
X39671375Y158017D01*
X39628506Y150500D01*
X38151761Y150500D01*
X38083640Y170502D01*
X38037147Y224158D01*
X38027043Y294432D01*
X38056537Y359012D01*
X38094950Y388966D01*
X38153195Y418388D01*
X38158689Y421163D01*
X38188515Y444465D01*
X38308453Y538171D01*
X38313303Y541960D01*
X38343084Y576461D01*
X38437485Y685827D01*
X38437485Y685828D01*
X38441509Y690489D01*
X38538425Y861091D01*
X38600358Y1047268D01*
X38624949Y1241929D01*
X38625341Y1270000D01*
X38606194Y1465272D01*
X38604413Y1471171D01*
X38604412Y1471176D01*
X38551265Y1647207D01*
X38549484Y1653106D01*
X38457370Y1826347D01*
X38333361Y1978398D01*
X38182180Y2103465D01*
X38009585Y2196787D01*
X37907124Y2228504D01*
X37828039Y2252985D01*
X37828036Y2252986D01*
X37822152Y2254807D01*
X37816027Y2255451D01*
X37816026Y2255451D01*
X37633147Y2274673D01*
X37633146Y2274673D01*
X37627019Y2275317D01*
X37504733Y2264188D01*
X37437759Y2258093D01*
X37437758Y2258093D01*
X37431618Y2257534D01*
X37425704Y2255793D01*
X37425702Y2255793D01*
X37349848Y2233468D01*
X37243393Y2202136D01*
X37193244Y2175918D01*
X37123611Y2162084D01*
X37057550Y2188093D01*
X37045775Y2198485D01*
X34859405Y4384855D01*
X34825379Y4447167D01*
X34822500Y4473950D01*
X34822500Y9780000D01*
X34842502Y9848121D01*
X34896158Y9894614D01*
X34948500Y9906000D01*
X36783814Y9906000D01*
X36796164Y9905393D01*
G37*
%TD.AperFunction*%
%TA.AperFunction,Conductor*%
G36*
X75091781Y9885998D02*
G01*
X75138274Y9832342D01*
X75148378Y9762068D01*
X75118884Y9697488D01*
X75102612Y9681803D01*
X75021751Y9616789D01*
X75012992Y9608211D01*
X74894853Y9467419D01*
X74887927Y9457305D01*
X74799383Y9296243D01*
X74794555Y9284979D01*
X74756898Y9166269D01*
X74756594Y9152168D01*
X74763153Y9149000D01*
X75848000Y9149000D01*
X75916121Y9128998D01*
X75962614Y9075342D01*
X75974000Y9023000D01*
X75974000Y7945742D01*
X75977973Y7932211D01*
X75986188Y7931030D01*
X76077430Y7956505D01*
X76088881Y7960947D01*
X76252919Y8043807D01*
X76263276Y8050380D01*
X76408100Y8163530D01*
X76416986Y8171991D01*
X76537070Y8311110D01*
X76544144Y8321138D01*
X76603944Y8426405D01*
X76654983Y8475756D01*
X76724601Y8489678D01*
X76790695Y8463752D01*
X76832280Y8406209D01*
X76839500Y8364168D01*
X76839500Y1801095D01*
X76819498Y1732974D01*
X76765842Y1686481D01*
X76695568Y1676377D01*
X76630988Y1705871D01*
X76602249Y1741942D01*
X76580558Y1782736D01*
X76557370Y1826347D01*
X76433361Y1978398D01*
X76282180Y2103465D01*
X76109585Y2196787D01*
X76007124Y2228504D01*
X75928039Y2252985D01*
X75928036Y2252986D01*
X75922152Y2254807D01*
X75916027Y2255451D01*
X75916026Y2255451D01*
X75733147Y2274673D01*
X75733146Y2274673D01*
X75727019Y2275317D01*
X75604733Y2264188D01*
X75537759Y2258093D01*
X75537758Y2258093D01*
X75531618Y2257534D01*
X75525704Y2255793D01*
X75525702Y2255793D01*
X75449848Y2233468D01*
X75343393Y2202136D01*
X75293244Y2175918D01*
X75223611Y2162084D01*
X75157550Y2188093D01*
X75145775Y2198485D01*
X73975405Y3368855D01*
X73941379Y3431167D01*
X73938500Y3457950D01*
X73938500Y8629025D01*
X74755923Y8629025D01*
X74784025Y8531020D01*
X74788543Y8519608D01*
X74872546Y8356156D01*
X74879196Y8345838D01*
X74993350Y8201811D01*
X75001873Y8192985D01*
X75141833Y8073871D01*
X75151905Y8066870D01*
X75312334Y7977210D01*
X75323574Y7972299D01*
X75448769Y7931621D01*
X75462867Y7931218D01*
X75466000Y7937590D01*
X75466000Y8622885D01*
X75461525Y8638124D01*
X75460135Y8639329D01*
X75452452Y8641000D01*
X74770604Y8641000D01*
X74757073Y8637027D01*
X74755923Y8629025D01*
X73938500Y8629025D01*
X73938500Y9780000D01*
X73958502Y9848121D01*
X74012158Y9894614D01*
X74064500Y9906000D01*
X75023660Y9906000D01*
X75091781Y9885998D01*
G37*
%TD.AperFunction*%
%TA.AperFunction,Conductor*%
G36*
X3783621Y9885998D02*
G01*
X3830114Y9832342D01*
X3841500Y9780000D01*
X3841500Y3457950D01*
X3821498Y3389829D01*
X3804595Y3368855D01*
X2743145Y2307405D01*
X2680833Y2273379D01*
X2654050Y2270500D01*
X1195180Y2270500D01*
X1151278Y2261767D01*
X1136501Y2251893D01*
X1068751Y2230678D01*
X1000284Y2249460D01*
X952840Y2302277D01*
X940500Y2356658D01*
X940500Y9394518D01*
X960502Y9462639D01*
X969101Y9474451D01*
X1075020Y9603514D01*
X1092479Y9620974D01*
X1224842Y9729601D01*
X1245369Y9743317D01*
X1396371Y9824029D01*
X1419191Y9833482D01*
X1583043Y9883185D01*
X1607260Y9888001D01*
X1783837Y9905393D01*
X1796187Y9906000D01*
X3715500Y9906000D01*
X3783621Y9885998D01*
G37*
%TD.AperFunction*%
%TD*%
M02*
