M48
; DRILL file {KiCad 6.0.7+dfsg-1~bpo11+1} date Tue Oct 18 02:59:47 2022
; FORMAT={-:-/ absolute / metric / decimal}
; #@! TF.CreationDate,2022-10-18T02:59:47+00:00
; #@! TF.GenerationSoftware,Kicad,Pcbnew,6.0.7+dfsg-1~bpo11+1
; #@! TF.FileFunction,Plated,1,2,PTH
FMAT,2
METRIC
; #@! TA.AperFunction,Plated,PTH,ViaDrill
T1C0.300
; #@! TA.AperFunction,Plated,PTH,ComponentDrill
T2C1.000
%
G90
G05
T1
X1.552Y11.176
X1.552Y9.144
X3.33Y15.24
X3.33Y11.176
X3.33Y9.144
X3.33Y5.08
X5.87Y15.24
X5.87Y11.176
X5.87Y9.144
X5.87Y5.08
X7.14Y11.176
X7.14Y9.144
X8.41Y15.24
X8.41Y5.08
X10.696Y11.176
X10.696Y9.144
X10.95Y15.24
X10.95Y5.08
X11.966Y11.176
X11.966Y9.144
X15.014Y11.176
X15.014Y9.144
X16.03Y15.24
X16.03Y5.08
X17.046Y11.176
X17.046Y9.144
X18.57Y15.24
X18.57Y5.08
X20.856Y11.176
X20.856Y9.144
X21.11Y15.24
X21.11Y5.08
X22.126Y11.176
X22.126Y9.144
X25.174Y11.176
X25.174Y9.144
X26.19Y15.24
X26.19Y5.08
X26.952Y11.176
X26.952Y9.144
X28.73Y15.24
X28.73Y5.08
X30.762Y11.176
X30.762Y9.144
X31.27Y15.24
X31.27Y5.08
X32.286Y11.176
X32.286Y9.144
X35.334Y11.176
X35.334Y9.144
X36.35Y15.24
X36.35Y5.08
X37.112Y11.176
X37.112Y9.144
X38.89Y15.24
X38.89Y5.08
X40.668Y11.176
X40.668Y9.144
X41.43Y15.24
X41.43Y5.08
X42.446Y11.176
X42.446Y9.144
X45.494Y11.176
X45.494Y9.144
X46.51Y15.24
X46.51Y5.08
X47.018Y11.176
X47.018Y9.144
X49.05Y15.24
X49.05Y5.08
X50.828Y11.176
X50.828Y9.144
X51.59Y15.24
X51.59Y5.08
X52.606Y11.176
X52.606Y9.144
X55.654Y11.176
X55.654Y9.144
X56.67Y15.24
X56.67Y5.08
X56.924Y11.176
X56.924Y9.144
X59.21Y15.24
X59.21Y5.08
X60.734Y11.176
X60.734Y9.144
X61.75Y15.24
X61.75Y5.08
X62.766Y11.176
X62.766Y9.144
X65.814Y11.176
X65.814Y9.144
X66.83Y15.24
X66.83Y5.08
X67.084Y11.176
X67.084Y9.144
X69.37Y15.24
X69.37Y5.08
X71.91Y15.24
X71.91Y12.7
X71.91Y7.62
X71.91Y5.08
X74.45Y15.24
X74.45Y5.08
T2
X2.06Y21.59
X2.06Y19.05
X2.06Y1.27
X4.6Y21.59
X4.6Y19.05
X4.6Y1.27
X7.14Y21.59
X7.14Y19.05
X7.14Y1.27
X9.68Y21.59
X9.68Y19.05
X9.68Y1.27
X12.22Y21.59
X12.22Y19.05
X12.22Y1.27
X14.76Y21.59
X14.76Y19.05
X14.76Y1.27
X17.3Y21.59
X17.3Y19.05
X17.3Y1.27
X19.84Y21.59
X19.84Y19.05
X19.84Y1.27
X22.38Y21.59
X22.38Y19.05
X22.38Y1.27
X24.92Y21.59
X24.92Y19.05
X24.92Y1.27
X27.46Y21.59
X27.46Y19.05
X27.46Y1.27
X30.0Y21.59
X30.0Y19.05
X30.0Y1.27
X32.54Y21.59
X32.54Y19.05
X32.54Y1.27
X35.08Y21.59
X35.08Y19.05
X35.08Y1.27
X37.62Y21.59
X37.62Y19.05
X37.62Y1.27
X40.16Y21.59
X40.16Y19.05
X40.16Y1.27
X42.7Y21.59
X42.7Y19.05
X42.7Y1.27
X45.24Y21.59
X45.24Y19.05
X45.24Y1.27
X47.78Y21.59
X47.78Y19.05
X47.78Y1.27
X50.32Y21.59
X50.32Y19.05
X50.32Y1.27
X52.86Y21.59
X52.86Y19.05
X52.86Y1.27
X55.4Y21.59
X55.4Y19.05
X55.4Y1.27
X57.94Y21.59
X57.94Y19.05
X57.94Y1.27
X60.48Y21.59
X60.48Y19.05
X60.48Y1.27
X63.02Y21.59
X63.02Y19.05
X63.02Y1.27
X65.56Y21.59
X65.56Y19.05
X65.56Y1.27
X68.1Y21.59
X68.1Y19.05
X68.1Y1.27
X70.64Y21.59
X70.64Y19.05
X70.64Y1.27
X73.18Y21.59
X73.18Y19.05
X73.18Y1.27
X75.72Y21.59
X75.72Y19.05
X75.72Y11.435
X75.72Y8.895
X75.72Y1.27
T0
M30
